<?xml version="1.0" encoding="UTF-8"?>
<svg xmlns="http://www.w3.org/2000/svg" xmlns:xlink="http://www.w3.org/1999/xlink" viewBox="0 0 3310.95 2686.78">
  <defs>
    <style>
      .cls-1 {
        fill: url(#_屋顶渐变-19);
      }

      .cls-1, .cls-2, .cls-3, .cls-4, .cls-5, .cls-6, .cls-7, .cls-8, .cls-9, .cls-10, .cls-11, .cls-12, .cls-13, .cls-14, .cls-15, .cls-16, .cls-17, .cls-18, .cls-19, .cls-20, .cls-21, .cls-22, .cls-23, .cls-24, .cls-25, .cls-26, .cls-27, .cls-28, .cls-29, .cls-30, .cls-31, .cls-32, .cls-33, .cls-34, .cls-35, .cls-36, .cls-37, .cls-38, .cls-39, .cls-40, .cls-41, .cls-42, .cls-43, .cls-44, .cls-45, .cls-46, .cls-47, .cls-48, .cls-49, .cls-50, .cls-51, .cls-52, .cls-53, .cls-54, .cls-55 {
        stroke-width: 0px;
      }

      .cls-2 {
        fill: url(#_屋顶渐变-15);
      }

      .cls-3 {
        fill: url(#_未命名的渐变_11);
      }

      .cls-4 {
        fill: url(#_屋顶渐变-13);
      }

      .cls-5 {
        fill: #897658;
      }

      .cls-6 {
        fill: #c8c4b3;
      }

      .cls-6, .cls-17 {
        opacity: .83;
      }

      .cls-7 {
        fill: url(#_屋顶渐变-3);
      }

      .cls-8 {
        fill: url(#_屋顶渐变-20);
      }

      .cls-9 {
        fill: url(#_屋顶渐变-4);
      }

      .cls-10 {
        fill: #e0ccb3;
        opacity: .52;
      }

      .cls-56 {
        stroke: #a4af8f;
        stroke-miterlimit: 10;
      }

      .cls-56, .cls-21 {
        fill: none;
      }

      .cls-11 {
        fill: #73674f;
      }

      .cls-12 {
        fill: url(#_未命名的渐变_10);
      }

      .cls-13 {
        fill: url(#_屋顶渐变-7);
      }

      .cls-14 {
        fill: #a4af8f;
      }

      .cls-15 {
        fill: url(#_屋顶渐变-16);
      }

      .cls-16 {
        fill: url(#_屋顶渐变-14);
      }

      .cls-17, .cls-25 {
        fill: #bcb5a4;
      }

      .cls-18 {
        fill: url(#_未命名的渐变_10-3);
      }

      .cls-19 {
        fill: url(#_屋顶渐变-8);
      }

      .cls-20 {
        fill: #cfc4b2;
      }

      .cls-22 {
        fill: url(#_屋顶渐变-24);
      }

      .cls-23 {
        fill: #614d35;
      }

      .cls-24 {
        fill: url(#_屋顶渐变-18);
      }

      .cls-26 {
        fill: url(#_屋顶渐变-22);
      }

      .cls-27 {
        fill: url(#_屋顶渐变-2);
      }

      .cls-28 {
        fill: #464249;
      }

      .cls-29 {
        fill: url(#_未命名的渐变_15-2);
      }

      .cls-30 {
        fill: url(#_未命名的渐变_28);
      }

      .cls-31 {
        fill: url(#_屋顶渐变-11);
      }

      .cls-32 {
        fill: url(#_未命名的渐变_15);
      }

      .cls-33 {
        fill: url(#_屋顶渐变-9);
      }

      .cls-34 {
        fill: url(#_屋顶渐变-12);
      }

      .cls-35 {
        fill: #507450;
      }

      .cls-36 {
        fill: url(#_屋顶渐变-26);
      }

      .cls-37 {
        fill: url(#_未命名的渐变_10-2);
      }

      .cls-38 {
        fill: url(#_屋顶渐变-23);
      }

      .cls-39 {
        fill: url(#_屋顶渐变);
      }

      .cls-40 {
        fill: #649367;
      }

      .cls-41 {
        fill: #b6a68c;
      }

      .cls-42 {
        fill: #737165;
      }

      .cls-43 {
        fill: url(#_屋顶渐变-17);
      }

      .cls-44 {
        fill: #aca99f;
      }

      .cls-45 {
        fill: url(#_未命名的渐变_9);
      }

      .cls-46 {
        fill: #6d6a61;
      }

      .cls-47 {
        fill: url(#_屋顶渐变-6);
      }

      .cls-48 {
        fill: url(#_屋顶渐变-27);
      }

      .cls-49 {
        fill: url(#_屋顶渐变-5);
      }

      .cls-50 {
        fill: url(#_屋顶渐变-25);
      }

      .cls-51 {
        fill: #e3dbd0;
      }

      .cls-52 {
        fill: url(#_屋顶渐变-28);
      }

      .cls-53 {
        fill: url(#_屋顶渐变-10);
      }

      .cls-54 {
        fill: url(#_屋顶渐变-21);
      }

      .cls-55 {
        fill: url(#_未命名的渐变_14);
      }
    </style>
    <linearGradient id="_屋顶渐变" data-name="屋顶渐变" x1="1966.48" y1="1299.6" x2="1966.48" y2="1303.85" gradientUnits="userSpaceOnUse">
      <stop offset=".13" stop-color="#716d6b"/>
      <stop offset=".39" stop-color="#686463"/>
      <stop offset=".82" stop-color="#4f4b50"/>
      <stop offset=".96" stop-color="#464249"/>
    </linearGradient>
    <linearGradient id="_屋顶渐变-2" data-name="屋顶渐变" y1="1305.66" y2="1309.91" xlink:href="#_屋顶渐变"/>
    <linearGradient id="_屋顶渐变-3" data-name="屋顶渐变" x1="1979.01" x2="1979.01" xlink:href="#_屋顶渐变"/>
    <linearGradient id="_屋顶渐变-4" data-name="屋顶渐变" x1="1979.01" y1="1305.66" x2="1979.01" y2="1309.91" xlink:href="#_屋顶渐变"/>
    <linearGradient id="_屋顶渐变-5" data-name="屋顶渐变" x1="1991.55" x2="1991.55" xlink:href="#_屋顶渐变"/>
    <linearGradient id="_屋顶渐变-6" data-name="屋顶渐变" x1="1991.55" y1="1305.66" x2="1991.55" y2="1309.91" xlink:href="#_屋顶渐变"/>
    <linearGradient id="_屋顶渐变-7" data-name="屋顶渐变" x1="2004.09" x2="2004.09" xlink:href="#_屋顶渐变"/>
    <linearGradient id="_屋顶渐变-8" data-name="屋顶渐变" x1="2004.09" y1="1305.66" x2="2004.09" y2="1309.91" xlink:href="#_屋顶渐变"/>
    <linearGradient id="_屋顶渐变-9" data-name="屋顶渐变" x1="2016.62" x2="2016.62" xlink:href="#_屋顶渐变"/>
    <linearGradient id="_屋顶渐变-10" data-name="屋顶渐变" x1="2016.62" y1="1305.66" x2="2016.62" y2="1309.91" xlink:href="#_屋顶渐变"/>
    <linearGradient id="_屋顶渐变-11" data-name="屋顶渐变" x1="1953.9" x2="1953.9" xlink:href="#_屋顶渐变"/>
    <linearGradient id="_屋顶渐变-12" data-name="屋顶渐变" x1="1953.9" y1="1305.66" x2="1953.9" y2="1309.91" xlink:href="#_屋顶渐变"/>
    <linearGradient id="_屋顶渐变-13" data-name="屋顶渐变" x1="1941.33" x2="1941.33" xlink:href="#_屋顶渐变"/>
    <linearGradient id="_屋顶渐变-14" data-name="屋顶渐变" x1="1941.33" y1="1305.66" x2="1941.33" y2="1309.91" xlink:href="#_屋顶渐变"/>
    <linearGradient id="_屋顶渐变-15" data-name="屋顶渐变" x1="1928.76" x2="1928.76" xlink:href="#_屋顶渐变"/>
    <linearGradient id="_屋顶渐变-16" data-name="屋顶渐变" x1="1928.76" y1="1305.66" x2="1928.76" y2="1309.91" xlink:href="#_屋顶渐变"/>
    <linearGradient id="_屋顶渐变-17" data-name="屋顶渐变" x1="1916.18" x2="1916.18" xlink:href="#_屋顶渐变"/>
    <linearGradient id="_屋顶渐变-18" data-name="屋顶渐变" x1="1916.18" y1="1305.66" x2="1916.18" y2="1309.91" xlink:href="#_屋顶渐变"/>
    <linearGradient id="_屋顶渐变-19" data-name="屋顶渐变" x1="1903.61" x2="1903.61" xlink:href="#_屋顶渐变"/>
    <linearGradient id="_屋顶渐变-20" data-name="屋顶渐变" x1="1903.61" y1="1305.66" x2="1903.61" y2="1309.91" xlink:href="#_屋顶渐变"/>
    <linearGradient id="_屋顶渐变-21" data-name="屋顶渐变" x1="1891.03" x2="1891.03" xlink:href="#_屋顶渐变"/>
    <linearGradient id="_屋顶渐变-22" data-name="屋顶渐变" x1="1891.03" y1="1305.66" x2="1891.03" y2="1309.91" xlink:href="#_屋顶渐变"/>
    <linearGradient id="_屋顶渐变-23" data-name="屋顶渐变" x1="1878.46" x2="1878.46" xlink:href="#_屋顶渐变"/>
    <linearGradient id="_屋顶渐变-24" data-name="屋顶渐变" x1="1878.46" y1="1305.66" x2="1878.46" y2="1309.91" xlink:href="#_屋顶渐变"/>
    <linearGradient id="_屋顶渐变-25" data-name="屋顶渐变" x1="1865.88" x2="1865.88" xlink:href="#_屋顶渐变"/>
    <linearGradient id="_屋顶渐变-26" data-name="屋顶渐变" x1="1865.88" y1="1305.66" x2="1865.88" y2="1309.91" xlink:href="#_屋顶渐变"/>
    <linearGradient id="_屋顶渐变-27" data-name="屋顶渐变" x1="1853.31" x2="1853.31" xlink:href="#_屋顶渐变"/>
    <linearGradient id="_屋顶渐变-28" data-name="屋顶渐变" x1="1853.31" y1="1305.66" x2="1853.31" y2="1309.91" xlink:href="#_屋顶渐变"/>
    <linearGradient id="_未命名的渐变_10" data-name="未命名的渐变 10" x1="1832.28" y1="1311.66" x2="1832.28" y2="1350.47" gradientUnits="userSpaceOnUse">
      <stop offset="0" stop-color="#a4af8f"/>
      <stop offset=".16" stop-color="#8ca480"/>
      <stop offset=".37" stop-color="#769b72"/>
      <stop offset=".56" stop-color="#689569"/>
      <stop offset=".73" stop-color="#649367"/>
    </linearGradient>
    <linearGradient id="_未命名的渐变_10-2" data-name="未命名的渐变 10" x1="1778.51" y1="1268.43" x2="1778.51" y2="1357.24" xlink:href="#_未命名的渐变_10"/>
    <linearGradient id="_未命名的渐变_11" data-name="未命名的渐变 11" x1="1677.75" y1="1374.53" x2="1677.75" y2="1432.19" gradientUnits="userSpaceOnUse">
      <stop offset="0" stop-color="#a4af8f"/>
      <stop offset=".22" stop-color="#8ca480"/>
      <stop offset=".5" stop-color="#769b72"/>
      <stop offset=".77" stop-color="#689569"/>
      <stop offset="1" stop-color="#649367"/>
    </linearGradient>
    <linearGradient id="_未命名的渐变_9" data-name="未命名的渐变 9" x1="1841.3" y1="1291.19" x2="1841.3" y2="1480.13" gradientUnits="userSpaceOnUse">
      <stop offset=".04" stop-color="#a4af8f"/>
      <stop offset=".91" stop-color="#649367"/>
    </linearGradient>
    <linearGradient id="_未命名的渐变_10-3" data-name="未命名的渐变 10" x1="1812.91" y1="1248.77" x2="1812.91" y2="1502.47" xlink:href="#_未命名的渐变_10"/>
    <linearGradient id="_未命名的渐变_14" data-name="未命名的渐变 14" x1="1915.16" y1="1435.45" x2="1915.16" y2="1513.46" gradientUnits="userSpaceOnUse">
      <stop offset="0" stop-color="#a4af8f"/>
      <stop offset=".16" stop-color="#8ca480"/>
      <stop offset=".35" stop-color="#769b72"/>
      <stop offset=".54" stop-color="#689569"/>
      <stop offset=".71" stop-color="#649367"/>
    </linearGradient>
    <linearGradient id="_未命名的渐变_15" data-name="未命名的渐变 15" x1="2070.74" y1="1382.72" x2="2070.74" y2="1472.94" gradientUnits="userSpaceOnUse">
      <stop offset="0" stop-color="#a4af8f"/>
      <stop offset=".21" stop-color="#8ca480"/>
      <stop offset=".48" stop-color="#769b72"/>
      <stop offset=".73" stop-color="#689569"/>
      <stop offset=".96" stop-color="#649367"/>
    </linearGradient>
    <linearGradient id="_未命名的渐变_15-2" data-name="未命名的渐变 15" x1="2041.3" y1="1471.74" x2="2041.3" y2="1635.15" xlink:href="#_未命名的渐变_15"/>
    <linearGradient id="_未命名的渐变_28" data-name="未命名的渐变 28" x1="1735.51" y1="1473.44" x2="1735.51" y2="1618.99" gradientUnits="userSpaceOnUse">
      <stop offset=".16" stop-color="#649367"/>
      <stop offset=".38" stop-color="#5b865d"/>
      <stop offset=".71" stop-color="#537853"/>
      <stop offset="1" stop-color="#507450"/>
    </linearGradient>
  </defs>
  <g id="_背景" data-name="背景">
    <rect class="cls-51" x="1185" y="1060.74" width="1396" height="789"/>
    <g id="_地面" data-name="地面">
      <rect class="cls-20" x="1199" y="1766.89" width="1366" height="72.51"/>
    </g>
    <path class="cls-21" d="m1882,1237.14c-74.36,0-141.44,31.77-188.4,82.44h376.79c-46.96-50.67-114.03-82.44-188.4-82.44Z"/>
    <path class="cls-10" d="m2070.4,1319.57h-376.79c-42.5,45.85-68.52,107.18-68.52,174.48,0,32.82,6.19,64.22,17.46,93.1h478.91c11.27-28.88,17.46-60.28,17.46-93.1,0-67.3-26.02-128.62-68.52-174.48Z"/>
    <path class="cls-21" d="m1704.74,1679.84c-9.31-10.46-18.63-20.93-27.94-31.39,8.46,11.21,17.8,21.71,27.94,31.39Z"/>
    <rect class="cls-6" x="1763.34" y="1309.36" width="295.15" height="10.21"/>
    <rect class="cls-17" x="1761.13" y="1319.57" width="295.15" height="11.23"/>
    <rect class="cls-42" x="1656.99" y="1569.79" width="455.45" height="17.79"/>
    <g id="_草地" data-name="草地">
      <path class="cls-14" d="m1642.55,1587.15c8.61,22.07,20.2,42.66,34.25,61.3,9.31,10.46,18.63,20.93,27.94,31.39,6.18,5.9,12.66,11.5,19.41,16.77v5.03c2.33,2.61,4.65,5.23,6.98,7.84l27.28-21.57,56.85-20.43,47.66-10.21,84.09-8.17,118.98-3.06-.51,3.44c3.74-.69,7.49-1.39,11.23-2.08,9.53-20.09,19.06-40.17,28.6-60.26h-462.75Z"/>
    </g>
    <g id="_道路" data-name="道路">
      <path class="cls-25" d="m2078.62,1766.89c-13.6-.05-27.21-.09-40.81-.14l-4.68-76.46,29.62-41.85-54.21,2.7-89.79,4.09-71.15,8.91-78.3,26.84-37.79,34.72-21.38,39.95-36.84-.12-74.89,73.21h553.69c-24.49-23.95-48.98-47.9-73.47-71.85Z"/>
    </g>
    <g id="_石子铺地" data-name="石子铺地">
      <polygon class="cls-51" points="1719.43 1839.4 1765.98 1738.82 1816.45 1692.8 1865.98 1669.19 1924.87 1660 1967.77 1655.23 2062.74 1651.83 2043.34 1677.7 2015.98 1683.15 1996.02 1692 1984.45 1734.89 2031.77 1839.4 1719.43 1839.4"/>
    </g>
    <path class="cls-28" d="m1806.83,1292.51v21.28h56c.36-1.4,1.62-2.45,3.13-2.45s2.78,1.04,3.13,2.45h.04c.36,1.4,1.62,2.45,3.13,2.45s2.78-1.04,3.13-2.45,1.62-2.45,3.13-2.45,2.78,1.04,3.13,2.45h.04c.36,1.4,1.62,2.45,3.13,2.45s2.78-1.04,3.13-2.45,1.62-2.45,3.13-2.45,2.78,1.04,3.13,2.45,1.62,2.45,3.13,2.45,2.78-1.04,3.13-2.45,1.62-2.45,3.13-2.45,2.78,1.04,3.13,2.45h.04c.36,1.4,1.62,2.45,3.13,2.45s2.78-1.04,3.13-2.45,1.62-2.45,3.13-2.45,2.78,1.04,3.13,2.45h.04c.36,1.4,1.62,2.45,3.13,2.45s2.78-1.04,3.13-2.45,1.62-2.45,3.13-2.45,2.78,1.04,3.13,2.45,1.62,2.45,3.13,2.45,2.78-1.04,3.13-2.45,1.62-2.45,3.13-2.45,2.78,1.04,3.13,2.45h.04c.36,1.4,1.62,2.45,3.13,2.45s2.78-1.04,3.13-2.45,1.62-2.45,3.13-2.45,2.78,1.04,3.13,2.45h.04c.36,1.4,1.62,2.45,3.13,2.45s2.78-1.04,3.13-2.45,1.62-2.45,3.13-2.45,2.78,1.04,3.13,2.45,1.62,2.45,3.13,2.45,2.78-1.04,3.13-2.45,1.62-2.45,3.13-2.45,2.78,1.04,3.13,2.45h.04c.36,1.4,1.62,2.45,3.13,2.45s2.78-1.04,3.13-2.45,1.62-2.45,3.13-2.45,2.78,1.04,3.13,2.45h.04c.36,1.4,1.62,2.45,3.13,2.45s2.78-1.04,3.13-2.45,1.62-2.45,3.13-2.45,2.78,1.04,3.13,2.45,1.62,2.45,3.13,2.45,2.78-1.04,3.13-2.45,1.62-2.45,3.13-2.45,2.78,1.04,3.13,2.45h.04c.36,1.4,1.62,2.45,3.13,2.45s2.78-1.04,3.13-2.45,1.62-2.45,3.13-2.45,2.78,1.04,3.13,2.45h8.89v-21.28h-234.47Z"/>
    <g>
      <path class="cls-39" d="m1966.48,1299.6c-2.35,0-4.26,1.91-4.26,4.26h8.51c0-2.35-1.91-4.26-4.26-4.26Z"/>
      <path class="cls-27" d="m1966.48,1305.66c-2.35,0-4.26,1.91-4.26,4.26h8.51c0-2.35-1.91-4.26-4.26-4.26Z"/>
    </g>
    <g>
      <path class="cls-7" d="m1979.01,1299.6c-2.35,0-4.26,1.91-4.26,4.26h8.51c0-2.35-1.91-4.26-4.26-4.26Z"/>
      <path class="cls-9" d="m1979.01,1305.66c-2.35,0-4.26,1.91-4.26,4.26h8.51c0-2.35-1.91-4.26-4.26-4.26Z"/>
    </g>
    <g>
      <path class="cls-49" d="m1991.55,1299.6c-2.35,0-4.26,1.91-4.26,4.26h8.51c0-2.35-1.91-4.26-4.26-4.26Z"/>
      <path class="cls-47" d="m1991.55,1305.66c-2.35,0-4.26,1.91-4.26,4.26h8.51c0-2.35-1.91-4.26-4.26-4.26Z"/>
    </g>
    <g>
      <path class="cls-13" d="m2004.09,1299.6c-2.35,0-4.26,1.91-4.26,4.26h8.51c0-2.35-1.91-4.26-4.26-4.26Z"/>
      <path class="cls-19" d="m2004.09,1305.66c-2.35,0-4.26,1.91-4.26,4.26h8.51c0-2.35-1.91-4.26-4.26-4.26Z"/>
    </g>
    <g>
      <path class="cls-33" d="m2016.62,1299.6c-2.35,0-4.26,1.91-4.26,4.26h8.51c0-2.35-1.91-4.26-4.26-4.26Z"/>
      <path class="cls-53" d="m2016.62,1305.66c-2.35,0-4.26,1.91-4.26,4.26h8.51c0-2.35-1.91-4.26-4.26-4.26Z"/>
    </g>
    <g>
      <path class="cls-31" d="m1953.9,1299.6c-2.35,0-4.26,1.91-4.26,4.26h8.51c0-2.35-1.91-4.26-4.26-4.26Z"/>
      <path class="cls-34" d="m1953.9,1305.66c-2.35,0-4.26,1.91-4.26,4.26h8.51c0-2.35-1.91-4.26-4.26-4.26Z"/>
    </g>
    <g>
      <path class="cls-4" d="m1941.33,1299.6c-2.35,0-4.26,1.91-4.26,4.26h8.51c0-2.35-1.91-4.26-4.26-4.26Z"/>
      <path class="cls-16" d="m1941.33,1305.66c-2.35,0-4.26,1.91-4.26,4.26h8.51c0-2.35-1.91-4.26-4.26-4.26Z"/>
    </g>
    <g>
      <path class="cls-2" d="m1928.76,1299.6c-2.35,0-4.26,1.91-4.26,4.26h8.51c0-2.35-1.91-4.26-4.26-4.26Z"/>
      <path class="cls-15" d="m1928.76,1305.66c-2.35,0-4.26,1.91-4.26,4.26h8.51c0-2.35-1.91-4.26-4.26-4.26Z"/>
    </g>
    <g>
      <path class="cls-43" d="m1916.18,1299.6c-2.35,0-4.26,1.91-4.26,4.26h8.51c0-2.35-1.91-4.26-4.26-4.26Z"/>
      <path class="cls-24" d="m1916.18,1305.66c-2.35,0-4.26,1.91-4.26,4.26h8.51c0-2.35-1.91-4.26-4.26-4.26Z"/>
    </g>
    <g>
      <path class="cls-1" d="m1903.61,1299.6c-2.35,0-4.26,1.91-4.26,4.26h8.51c0-2.35-1.91-4.26-4.26-4.26Z"/>
      <path class="cls-8" d="m1903.61,1305.66c-2.35,0-4.26,1.91-4.26,4.26h8.51c0-2.35-1.91-4.26-4.26-4.26Z"/>
    </g>
    <g>
      <path class="cls-54" d="m1891.03,1299.6c-2.35,0-4.26,1.91-4.26,4.26h8.51c0-2.35-1.91-4.26-4.26-4.26Z"/>
      <path class="cls-26" d="m1891.03,1305.66c-2.35,0-4.26,1.91-4.26,4.26h8.51c0-2.35-1.91-4.26-4.26-4.26Z"/>
    </g>
    <g>
      <path class="cls-38" d="m1878.46,1299.6c-2.35,0-4.26,1.91-4.26,4.26h8.51c0-2.35-1.91-4.26-4.26-4.26Z"/>
      <path class="cls-22" d="m1878.46,1305.66c-2.35,0-4.26,1.91-4.26,4.26h8.51c0-2.35-1.91-4.26-4.26-4.26Z"/>
    </g>
    <g>
      <path class="cls-50" d="m1865.88,1299.6c-2.35,0-4.26,1.91-4.26,4.26h8.51c0-2.35-1.91-4.26-4.26-4.26Z"/>
      <path class="cls-36" d="m1865.88,1305.66c-2.35,0-4.26,1.91-4.26,4.26h8.51c0-2.35-1.91-4.26-4.26-4.26Z"/>
    </g>
    <g>
      <path class="cls-48" d="m1853.31,1299.6c-2.35,0-4.26,1.91-4.26,4.26h8.51c0-2.35-1.91-4.26-4.26-4.26Z"/>
      <path class="cls-52" d="m1853.31,1305.66c-2.35,0-4.26,1.91-4.26,4.26h8.51c0-2.35-1.91-4.26-4.26-4.26Z"/>
    </g>
    <g id="_图层_17" data-name="图层 17">
      <rect class="cls-42" x="1807.6" y="1288.77" width="193.02" height="3.74"/>
    </g>
  </g>
  <g id="_树叶" data-name="树叶">
    <path class="cls-14" d="m1932.7,1395.15c2.35-3.04,4.71-6.07,7.06-9.11l-6.97-15.67,1.69-9.95h-8.17l-10.47-7.15-.86-.07-.16-.1h-1.1l-13.79-1.11c3.77-3.77,7.55-7.55,11.32-11.32-2.3-3.8-4.6-7.6-6.89-11.4v-4.85l-8.43-6.38-12.46,4.34-13.84-6.89-21.45-6.89-8.43-16.09-23.32-2.04-8.34-12.11-35.23,2.16-27.74,20.84-2.56.52-8.47,7.77h0l-13.06,9.81-3.45,2.3-33.83,42.07c.87-.13,1.73-.26,2.6-.38l-.3.38,14.34-1.84.81.78v2.6l6.52,3.69,1.61,1.52-18.3-.95-1.79,8.81-11.11-7.91-15.4,10.21-13.83,61.53h15.83l14.68-7.02h17.11l6.77-7.79-8.81-5.23,7.36-12.26-11.83-5.11-17.36.77-1.66-2.3,15.92-4.88h19.66l16.89.54,16.09,4.34,7.93-11.44.74,14.67-1.4.09,1.79,7.66,23.55-1.63c4.89.17,9.77.35,14.66.52,8.06-1.94,16.11-3.88,24.17-5.82l4.6,5.99c6.95-1.39,13.9-2.78,20.85-4.17l3.36,6,.13.55,13.8-3.64,2.57,1.51,9.81,6.01,3.35,3.01c1.15.74,2.3,1.48,3.46,2.22-2.97,1.87-5.94,3.74-8.9,5.61l-2.3,12.17,9.96,4.09,18.32-4.27,27.26,6.72.39.1,16.6-4.17,1.53-6.21-2.48-3.38-1.35-13.55,5.87-19.15-5.11-7.66Zm-75.91-9.19c-4.43.09-8.85.17-13.28.26l-9.79-4.43-17.28.85-5.28-3.32-27.06,3.32h-14.55l-19.56,5.62,1.68-2.43-5.79-5.69.84-.3,35.33-12.27c4.34.68,8.68,1.36,13.02,2.04,8.82-.34,17.65-.68,26.47-1.02l43.06,9.32c-2.61,2.68-5.22,5.36-7.83,8.04Z"/>
    <path class="cls-21" d="m1820.86,1378.4l-.76-6.23c.48-1.19.96-2.38,1.45-3.57-8.82.34-17.65.68-26.47,1.02-4.34-.68-8.68-1.36-13.02-2.04l-35.33,12.27h0s-.83.3-.83.3l5.79,5.69-1.68,2.43,19.56-5.62h14.55l27.06-3.32,5.28,3.32,3.64-1.59.58-.25c.06-.8.13-1.6.19-2.39Z"/>
    <polygon class="cls-21" points="1853.73 1412.11 1856.31 1413.62 1862.52 1417.42 1853.81 1412.09 1853.73 1412.11"/>
    <polygon class="cls-21" points="1866.12 1419.63 1869.47 1422.64 1871.34 1424.51 1867 1420.17 1866.12 1419.63"/>
    <path class="cls-21" d="m1919.09,1384.26c-.06-2.61-.11-5.22-.17-7.83-3.52-3.23-7.04-6.47-10.55-9.7l-45.28,22.81-19.57-3.4-9.87-4.26c-4.37.23-8.74.45-13.11.68-.15-.5-.3-1-.44-1.5l-3.64,1.59-5.28-3.32-27.06,3.32h-14.55l-19.56,5.62,1.68-2.43-5.79-5.69.83-.3s0,0,0,0l-18.45-9.89c-5.37.89-10.74,1.77-16.11,2.66-1.04-.69-2.08-1.37-3.11-2.06l-18.01-.94-1.79,8.81-11.11-7.91-15.4,10.21-13.83,61.53h15.83l14.68-7.02h17.11l6.77-7.79-8.81-5.23,7.36-12.26-11.83-5.11-17.36.77-1.66-2.3-11.74-.51,8-8.43,25.62-2.81,9.62,1.4,4.09,5.46h0l10.16.32c-2.62-1.77-5.24-3.55-7.87-5.32l15.57-5.19,20.77,3.32-5.28,4.64c-5.02,1.05-10.05,2.09-15.07,3.14l14.69,3.96,7.93-11.44.74,14.67-1.4.09,23.66-1.45,9.79-5.7,22.04-.51c5.48,2.15,10.96,4.3,16.45,6.45-2.47.81-4.94,1.61-7.4,2.42,1.41,1.84,2.82,3.68,4.23,5.52,6.95-1.39,13.9-2.78,20.85-4.17l3.36,6-3.02-12.98-15.32-2.21v-7.15l11.49-4.59,9.96,6.89,10.38,2.38.68,4.51,12.26-.68,6.47-5.45,12.77,3.06,7.23-6.89,8.85,6.89-4.43,4.6,13.02,4.43,13.79,9.36-6.3,1.87,1.45,8.94c4.67,1.85,9.35,3.69,14.02,5.54l-1.17-11.75,5.87-19.15-5.11-7.66-13.62-10.89Z"/>
    <path class="cls-21" d="m1726.06,1334.38l4.26,4.77,19.74,2.72,11.74-1.7,10.55,5.62,26.55-9.19-8.17-5.62,11.74-2.38,18.04,8.85h12.94l9.7,6.3,10.72-1.7-4.77-5.87,7.66-5.7,1.4,5.7,17.15,5.7,6.66-5.7,14.11,5.02,6.02,5.87-4.49,4.34,2.3,1.7h13.79l-13.79-1.11c3.77-3.77,7.55-7.55,11.32-11.32-2.3-3.8-4.6-7.6-6.89-11.4v-4.85l-8.43-6.38-12.46,4.34-13.84-6.89-21.45-6.89-8.43-16.09-23.32-2.04-8.34-12.11-35.23,2.16-27.74,20.84,28.25-5.77,11.66,5.11,20.17-5.11,17.7,9.53h-32.17l-14.98,6.98-6.13-3.74h-4.43l-1.53,4.39-15.49,3.1-14.09-6.19-13.06,9.81-3.45,2.3-33.83,42.07c.87-.13,1.73-.26,2.6-.38l23.02-29.05h16.68Zm98.13-15.83l11.15,6.13,8-3.06h6.64l1.7,3.06-16.17,6.13-11.32-2.21-11.32-5.62,11.32-4.43Z"/>
    <polygon class="cls-21" points="1915.85 1353.28 1914.99 1353.21 1914.83 1353.11 1926.32 1360.43 1915.85 1353.28"/>
    <polygon class="cls-12" points="1835.51 1330.81 1851.68 1324.68 1849.98 1321.62 1843.34 1321.62 1835.34 1324.68 1824.19 1318.55 1812.87 1322.98 1824.19 1328.6 1835.51 1330.81"/>
    <polygon class="cls-37" points="1763.68 1312.73 1765.21 1308.34 1769.64 1308.34 1775.77 1312.09 1790.74 1305.11 1822.91 1305.11 1805.21 1295.57 1785.04 1300.68 1773.38 1295.57 1745.13 1301.35 1745.13 1301.35 1742.57 1301.87 1734.1 1309.64 1734.1 1309.64 1734.1 1309.64 1748.19 1315.83 1763.68 1312.73"/>
    <polygon class="cls-3" points="1706.58 1398.44 1706.58 1398.44 1702.49 1392.98 1692.87 1391.57 1667.26 1394.38 1662.95 1398.91 1658.66 1398.91 1648.91 1442.26 1664.74 1442.26 1679.43 1435.23 1696.53 1435.23 1703.3 1427.45 1694.49 1422.21 1701.85 1409.96 1690.02 1404.85 1672.66 1405.62 1671 1403.32 1686.92 1398.44 1706.58 1398.44"/>
    <path class="cls-40" d="m1745.21,1391.57l-20.77-3.32-15.57,5.19c2.62,1.77,5.24,3.55,7.87,5.32l6.73.21,1.39.38c5.02-1.05,10.05-2.09,15.07-3.14l5.28-4.64Z"/>
    <path class="cls-45" d="m1933.28,1435.51l-.18-1.8c-4.67-1.85-9.35-3.69-14.02-5.54l-1.45-8.94,6.3-1.87-13.79-9.36-13.02-4.43,4.43-4.6-8.85-6.89-7.23,6.89-12.77-3.06-6.47,5.45-12.26.68-.68-4.51-10.38-2.38-9.96-6.89-11.49,4.59v7.15l-2.7,5.43c-5.48-2.15-10.96-4.3-16.45-6.45l-22.04.51-9.79,5.7c-7.89-2.44-15.77-4.88-23.66-7.32,1.72,7.65,3.45,15.29,5.17,22.94,5.09-2.36,10.17-4.72,15.26-7.09,6.52-.18,13.05-.35,19.57-.53,8.06-1.94,24.41-5.51,24.53-5.35l4.23,5.52,20.85-4.17,3.49,6.55,13.8-3.64.08-.02,8.71,5.34,3.6,2.21h0c1.17,1.03,2.33,2.07,3.5,3.1.98.67,1.95,1.34,2.93,2-2.84,1.91-5.68,3.82-8.52,5.73l-2.3,12.17,9.96,4.09,18.32-4.27,27.26,6.72.39.1,16.6-4.17,1.53-6.21-2.48-3.38Z"/>
    <path class="cls-18" d="m1932.8,1370.37l1.69-9.95h-8.17l-11.49-7.32h-14.89l-2.3-1.7,4.49-4.34-6.02-5.87-14.11-5.02-6.66,5.7-17.15-5.7-1.4-5.7-7.66,5.7,4.77,5.87-10.72,1.7-9.7-6.3h-12.94l-18.04-8.85-11.74,2.38,8.17,5.62-26.55,9.19-10.55-5.62-11.74,1.7-19.74-2.72-4.26-4.77h-16.68l-23.02,29.05-.3.38,14.34-1.84.81.78v2.6l6.52,3.69,1.61,1.52-.29-.02c1.04.69,2.08,1.37,3.11,2.06,5.37-.89,10.74-1.77,16.11-2.66l18.45,9.89s0,0,0,0h0s35.33-12.27,35.33-12.27c4.34.68,8.68,1.36,13.02,2.04,8.82-.34,17.65-.68,26.47-1.02l43.06,9.32,17.47-1.79c8.76-3.13,17.52-6.27,26.28-9.4,3.52,3.23,7.04,6.47,10.55,9.7.06,2.61.11,5.22.17,7.83l13.62,10.89c2.35-3.04,4.71-6.07,7.06-9.11l-6.97-15.67Z"/>
  </g>
  <g id="_树枝" data-name="树枝">
    <polygon class="cls-11" points="1861.47 1415.49 1855.34 1422.72 1856.7 1428.77 1863.85 1430.38 1872.36 1424.43 1883 1422.55 1899.94 1422.89 1888.53 1424.68 1877.04 1425.79 1869.98 1432 1872.7 1433.19 1880.28 1433.02 1890.83 1431.4 1896.45 1434.55 1882 1435.06 1875.6 1436.85 1863.94 1433.96 1840.02 1431.83 1832.62 1427.57 1827.51 1426.64 1816.45 1410.47 1823.6 1411.15 1830.06 1421.79 1839.43 1426.55 1850.83 1426.55 1851.51 1422.3 1857.04 1414.3 1861.47 1415.49"/>
    <path class="cls-11" d="m1865.47,1507.32l44.26,19.4,1.19-3.23-34.21-14.64,8.51-2.21h7.32l8.68,4.77,2.38-3.23-11.4-5.55h-6.64l-6.3,2.31-20.77-2.31-23.83-13.69,1.36-2.38,12.94.51,17.36.34,6.47,4.43,6.64.68,13.62-1.63h8.68l-3.4-8.41-14.84-4.6-10.35,3.74-9.19.85c3.09-4.09,6.18-8.17,9.28-12.26-4.57,4.09-9.13,8.17-13.7,12.26l-5.96-1.87h-9.36l-14.81-15.32-20.6-13.96-20.26-37.11-7.83.34-13.45,15.32-10.89-6.13-4.94-12.26,3.96-22.38c4.79-2.05,9.58-4.1,14.36-6.15,2.28.06,4.55.13,6.83.19l13.15-7.53,12.51-8.68h11.36l26.94-1.91,23.11-11.87-17.62,7.28-15.45,1.15,11.62-15.45-13.4,13.4-5.62,1.79-15.57.51,15.57-7.28-23.87,7.4,5.49-14.68-9.45,16.34-11.49,6.77-10.72,3.19-14.55,10.21-2.92,1.39.37-5.35,11.23-29.11-2.55-3.91-6.98.51-3.06,9.87c-5.33-.92-10.67-1.84-16-2.77l-3.5-6.55c-4.36-2.16-8.73-4.31-13.09-6.47l8.26,6.94c.87,1.69,1.73,3.38,2.6,5.06-6.68-.04-13.36-.09-20.04-.13-3.97-2.87-7.94-5.73-11.91-8.6-1.17.99-2.33,1.99-3.5,2.98l10.38,7.15,11.23,3.4,13.45-.85,6.98,2.04,11.57,2.72-6.47,4.43v17.36l-9.87,11.91-10.38,1.7-13.28,4.77-3.74,9.7v5.62l-5.11,8-6.64-2.21-12.09-1.36h-14.64l-6.13,4.77,15.15-1.19,13.11,1.19,12.77,4.09c2.53-3.92,5.06-7.85,7.59-11.77.14-2.62.29-5.24.43-7.86,1.1-2.33,2.19-4.66,3.29-6.99,4.74-1.34,9.48-2.68,14.22-4.02l2.21,1.36,4.26,25.53,6.64,7.32,9.36,4.6,4.77,9.02,2.55,18.21,2.72,78.47,21.79,1.7-3.06-7.66-3.4-6.47-3.4-64.17-.68-9.19.17-23.15,6.3-8.34,7.66.68,11.06,19.4,4.6,11.06,7.83,15.4,3.57,8.43,12.09,6.3,16.68,12.77,12.43,13.45,15.32,4.94,3.91-1.7v-1.7h-4.6l-11.91-4.6-12.09-11.06,5.79,1.77,13.62,4.7Zm18.01-26.47l13.56,3.32.34,3.49h-7.49l-10.64,2.04-8.34-4.09,12.56-4.77Zm-69.67-22.21l12.17,9.11,17.02,16.43-15.57-1.87-13.62-23.66Z"/>
    <path class="cls-11" d="m1979.6,1557.79l.77,6.38h15.06l9.11-9.19,6.04-1.02-6.21,7.15,6.21,2.64,10.13-.68,6.72-7.4,4.26-.68-10.04,10.81,2.89,3.32,9.7-3.4,7.06-.51,3.32-6.72,6.13-4.51,3.91,2.55-7.57,5.02.09,5.53,8.85,3.23c-3.55,3.15-7.09,6.3-10.64,9.45,1.84.68,3.67,1.37,5.51,2.05-3.88,4.23-7.76,8.45-11.64,12.68h-47.15l20.26-21.79-13.36-8.26-2.13,2.04-17.96-.09-2.98-4.94,3.66-3.66Z"/>
  </g>
  <g id="_上层树叶" data-name="上层树叶">
    <path class="cls-14" d="m1834.91,1454.74l12,2.19,9.7-3.57,3.32,5.28,12.26,3.4v-6.8l14.55,4.76,13.19-1.36,17.96,1.11,10.21-4.5,9.7,2.46c.74-1.05,1.48-2.1,2.21-3.15,3.6.23,7.21.46,10.81.69l4.34,3.39,4.85,3.4v2.04l2.81,3.57-15.32,11.46h-2.55l4.6,5.05-10.47,1.11-5.11,5.6h14.3l5.36,7.68-15.83,8.68-15.06,4.6c-8.06.45-16.11.91-24.17,1.36,1.9-4.4,3.8-8.79,5.7-13.19-4.03-2.24-8.06-4.48-12.09-6.72-2.27-5.9-4.54-11.8-6.81-17.7-4.14.26-8.28.51-12.43.77l-7.66.85-12.26-7.49-15.57-1.02-4.85-12.26,2.3-1.68Z"/>
    <polygon class="cls-40" points="1926.96 1522.81 1939.47 1515.53 1940.11 1509.15 1957.21 1502.62 1962.83 1509.53 1946.36 1519.62 1953 1522.81 1949.3 1526.51 1942.15 1526.51 1928.23 1532.89 1909.72 1526.72 1910.91 1523.49 1926.96 1522.81"/>
    <g id="_图层_11" data-name="图层 11">
      <path class="cls-55" d="m1954.17,1474.14c-7.04-1.19-14.08-2.39-21.13-3.58l-.85-5.96-12.6,7.26-14.3,2.06-7.91-9.32-16.94,6.81-4.29,4.74c3.07-.19,6.15-.38,9.22-.57,2.27,5.9,4.54,11.8,6.81,17.7,4.03,2.24,8.06,4.48,12.09,6.72-1.9,4.4-3.8,8.79-5.7,13.19,6.55-.37,13.11-.74,19.66-1.11l5.69-.61,13.88-4.24,15.83-8.68-5.36-7.68h-14.3l5.11-5.6,10.47-1.11-4.6-5.05h2.55l6.66-4.98Z"/>
    </g>
    <polygon class="cls-32" points="2095.43 1382.55 2061.04 1391.74 2063.43 1399.36 2049.81 1407.4 2057.3 1414.75 2072.62 1419.63 2067.51 1429.87 2051.17 1429.87 2039.6 1417.42 2025.64 1427.83 2033.81 1434.64 2041.3 1434.64 2037.21 1443.94 2058.32 1453.36 2084.53 1443.94 2104.62 1449.28 2115.85 1436.85 2095.43 1382.55"/>
    <path class="cls-40" d="m1993.38,1578.98l10.55-7.66h11.74c2.67,2.47,5.33,4.94,8,7.4-10.1.09-20.2.17-30.3.26Z"/>
    <path class="cls-29" d="m2119.26,1462.89l-32.34-11.91-6.81,2.38-1.36,12.94-10.21-6.04-3.4,13.66-7.83,1.91-14.98,15.05,6.81,14.57-22.47,11.05-13.28-11.05-44.6,14.3-9.19,15.83,9.87,7.32-3.06,12.43,9.53,8.43,24.17-8.43,14.98,6.64,17.02-5.11,2.72-5.79,11.57-3.49-1.36,7.74,8.11,8.69,9.59-2.22,6.47,5.62-18.38,10.89,9.87,7.49,43.23-2.04,19.06-52.43-3.74-68.43Zm-60.09,44.09l1.36,9.02-11.23-1.36,9.87-7.66Zm-1.87,44.77l-6.3-1.87,2.38-5.45,9.36,1.19-5.45,6.13Zm11.06,0l-2.04-.85,1.02-4.43h4.77l-3.74,5.28Zm24.17,8.51h-12.6l4.77-6.3h.85l15.15-2.21-8.17,8.51Z"/>
    <line class="cls-56" x1="2054.06" y1="1407.4" x2="2071.77" y2="1399.4"/>
    <line class="cls-56" x1="2061.89" y1="1410.47" x2="2070.74" y2="1402.81"/>
    <line class="cls-56" x1="2063.94" y1="1413.87" x2="2079.77" y2="1406.64"/>
    <line class="cls-56" x1="2083.51" y1="1412" x2="2071.77" y2="1430.72"/>
    <line class="cls-56" x1="2083.51" y1="1418.77" x2="2079.77" y2="1438.04"/>
    <line class="cls-56" x1="2087.09" y1="1417.28" x2="2088.28" y2="1435.83"/>
    <line class="cls-56" x1="2048.28" y1="1443.32" x2="2069.72" y2="1435.83"/>
    <line class="cls-56" x1="2051" y1="1446.21" x2="2063.94" y2="1439.57"/>
    <line class="cls-56" x1="2056.11" y1="1448.26" x2="2068.87" y2="1439.57"/>
    <line class="cls-56" x1="2063.94" y1="1448.26" x2="2073.64" y2="1439.57"/>
    <line class="cls-56" x1="2045.04" y1="1432.94" x2="2066.32" y2="1431.57"/>
    <line class="cls-56" x1="2039.09" y1="1420.17" x2="2041.3" y2="1430.72"/>
    <line class="cls-56" x1="2035" y1="1422.89" x2="2039.09" y2="1430.72"/>
    <line class="cls-56" x1="2031.6" y1="1429.19" x2="2039.09" y2="1432.26"/>
    <line class="cls-56" x1="1971.34" y1="1522.81" x2="1984.79" y2="1528.6"/>
    <line class="cls-56" x1="1969.47" y1="1525.7" x2="1980.7" y2="1530.47"/>
    <line class="cls-56" x1="1964.36" y1="1533.87" x2="1980.7" y2="1532.89"/>
    <path class="cls-56" d="m1967.43,1537.62c.51-.17,14.98-1.87,14.98-1.87"/>
    <line class="cls-56" x1="2054.06" y1="1537.62" x2="2039.09" y2="1539.83"/>
    <line class="cls-56" x1="2056.87" y1="1538.72" x2="2045.04" y2="1542.55"/>
    <line class="cls-56" x1="2061.21" y1="1539.83" x2="2055.68" y2="1542.55"/>
    <line class="cls-56" x1="2065.64" y1="1538.72" x2="2061.21" y2="1543.57"/>
    <line class="cls-56" x1="2070.74" y1="1539.83" x2="2064.96" y2="1544.43"/>
    <line class="cls-56" x1="2069.21" y1="1580.17" x2="2062.74" y2="1584.09"/>
    <line class="cls-56" x1="2074.66" y1="1578.98" x2="2067.85" y2="1584.09"/>
    <line class="cls-56" x1="2080.62" y1="1578.98" x2="2074.66" y2="1584.09"/>
    <line class="cls-56" x1="2085.89" y1="1577.79" x2="2080.62" y2="1584.09"/>
    <line class="cls-56" x1="2091.34" y1="1576.77" x2="2086.57" y2="1582.89"/>
    <line class="cls-56" x1="2097.64" y1="1575.15" x2="2092.02" y2="1582.89"/>
    <line class="cls-56" x1="1981.72" y1="1548.09" x2="1971.34" y2="1544.43"/>
    <line class="cls-56" x1="1978.06" y1="1549.7" x2="1970.15" y2="1548.09"/>
    <line class="cls-56" x1="1978.06" y1="1551.74" x2="1969.47" y2="1551.74"/>
    <line class="cls-56" x1="1971.34" y1="1554.81" x2="1979.51" y2="1553.96"/>
    <line class="cls-56" x1="1975.94" y1="1558.55" x2="1983.26" y2="1554.38"/>
    <line class="cls-56" x1="1980.7" y1="1558.55" x2="1988.19" y2="1554.38"/>
  </g>
  <g id="_树丛" data-name="树丛">
    <path class="cls-41" d="m1771.35,1534.55c-1.87.59-3.74,1.19-5.62,1.78l-2.57-66.37-12.77-9.7h-15.32v20.94l16.72,66.38,5.9-2.07c-2.42,5.84-4.84,11.69-7.26,17.53,13.43,2.85,26.87,5.7,40.3,8.55,2.04-8.77,4.09-17.53,6.13-26.3-8.51-3.58-17.01-7.15-25.52-10.72Z"/>
    <path class="cls-5" d="m1721.17,1486.94c4.64-4.34,9.28-8.68,13.91-13.02l18.13,42.26-4.85,6.64,9.19,23.66-43.91-.68c-1.28-8.13-2.55-16.26-3.83-24.38,3.11-5.89,6.21-11.78,9.32-17.67.68-5.6,1.36-11.2,2.05-16.8Z"/>
    <path class="cls-23" d="m1731.64,1546.07v-54.41h-.13l.13-.13-9.79-4.3-.68-.3-.58,4.72h0c-.49,4.03-.98,8.05-1.47,12.08l-9.32,17.67c1.28,8.13,2.55,16.26,3.83,24.38l18,.28Z"/>
    <polygon class="cls-35" points="1864.45 1569.79 1879.43 1555.32 1892.36 1556.51 1900.87 1590.72 1878.23 1591.91 1864.45 1569.79"/>
    <path class="cls-30" d="m1643.17,1516.5l19.57-13.88,52.68,20.44,14.3,22.21c12.68-2.13,25.36-4.26,38.04-6.38,3.06,5.48,6.13,10.95,9.19,16.43,1.28,2.52,2.55,5.05,3.83,7.57l9.96-3.32c-2.3-3.49-4.6-6.98-6.89-10.47l5.36-8.43,7.66-.51,5.62,7.4,7.91-1.51,8.43,12.49-2.81,5.62,9.7,9.45c.71,5.42,1.42,10.84,2.13,16.26l-38.13,6.13c-11.46-2.27-22.92-4.54-34.38-6.81l-20.77.34c-4.65,3.18-9.3,6.35-13.96,9.53-11.01,1.13-22.01,2.27-33.02,3.4-9.11-4.85-18.21-9.7-27.32-14.55l-17.11-71.41Z"/>
    <path class="cls-40" d="m1654.91,1569.79s40.6,8.17,41.36,8.17,13.53,28.85,13.53,28.85l-10.47,3.32-34.21,1.28-10.21-41.62Z"/>
    <polygon class="cls-40" points="1821.13 1573.87 1844.62 1565.7 1872.96 1566.98 1889.81 1579.23 1885.72 1606.04 1858.19 1610.13 1834.15 1606.81 1831.34 1603.23 1819.85 1604.77 1818.06 1601.96 1810.4 1599.91 1822.4 1589.96 1821.13 1573.87"/>
    <line class="cls-56" x1="1679.26" y1="1561.96" x2="1694.74" y2="1532.34"/>
    <line class="cls-56" x1="1694.74" y1="1546.47" x2="1708.53" y2="1538.13"/>
    <line class="cls-56" x1="1691.51" y1="1553.45" x2="1715.17" y2="1547.15"/>
    <polyline class="cls-56" points="1682.36 1567.23 1691.51 1560.26 1711.94 1560.26 1725.89 1565.7"/>
    <polyline class="cls-56" points="1687 1572.68 1699.17 1568.94 1719.43 1574.55"/>
    <line class="cls-56" x1="1709.81" y1="1563.74" x2="1721.98" y2="1571.74"/>
    <line class="cls-56" x1="1671.43" y1="1526.55" x2="1674.32" y2="1540.51"/>
    <line class="cls-56" x1="1675.17" y1="1546.07" x2="1685.72" y2="1530.81"/>
    <line class="cls-56" x1="1687" y1="1537.28" x2="1683.68" y2="1547.15"/>
    <line class="cls-56" x1="1659.51" y1="1535.57" x2="1675.17" y2="1550.3"/>
    <line class="cls-56" x1="1656.62" y1="1539.49" x2="1666.49" y2="1556.68"/>
    <line class="cls-56" x1="1671.43" y1="1553.45" x2="1671.43" y2="1561.11"/>
    <line class="cls-56" x1="1700.87" y1="1576.77" x2="1710.91" y2="1576.77"/>
    <line class="cls-56" x1="1704.13" y1="1583.23" x2="1720.11" y2="1591.91"/>
  </g>
  <g id="_门洞和路" data-name="门洞和路">
    <path class="cls-46" d="m2142.57,1494.72c0-143.09-116-259.1-259.1-259.1s-259.1,116-259.1,259.1c0,83.01,39.05,156.88,99.76,204.29v67.45l17.21-21.82v-65.49c-55.17-42.58-90.72-109.35-90.72-184.44,0-128.6,104.25-232.85,232.85-232.85s232.85,104.25,232.85,232.85c0,82.68-43.1,155.29-108.05,196.61v45.7l18.73,32.58h.11v-59.25c69.6-46.45,115.45-125.69,115.45-215.64Z"/>
    <path class="cls-44" d="m2103.47,1319.57c-6.84-8.65-14.21-16.95-22.12-24.87-53.25-53.25-124.04-82.57-199.34-82.57s-146.1,29.32-199.34,82.57c-7.91,7.91-15.28,16.22-22.12,24.87-39.18,49.53-60.45,110.37-60.45,174.48,0,32.2,5.38,63.57,15.68,93.1,13.79,39.53,36.41,75.77,66.89,106.25,5.32,5.32,10.83,10.39,16.49,15.22v57.85h25v-69.86c-6.75-5.27-13.22-10.87-19.41-16.77-10.14-9.68-19.49-20.18-27.94-31.39-14.05-18.63-25.64-39.23-34.25-61.3-11.27-28.88-17.46-60.28-17.46-93.1,0-67.3,26.02-128.62,68.52-174.48,46.96-50.67,114.03-82.44,188.4-82.44s141.44,31.77,188.4,82.44c42.5,45.85,68.52,107.18,68.52,174.48,0,32.82-6.19,64.22-17.46,93.1-18.89,48.42-52.07,89.74-94.32,118.78h-.38v63.69h25v-50.42c10.36-7.84,20.24-16.45,29.59-25.8,30.48-30.48,53.1-66.71,66.89-106.25,10.3-29.53,15.68-60.9,15.68-93.1,0-64.11-21.27-124.95-60.45-174.48Z"/>
  </g>
</svg>