<?xml version="1.0" encoding="UTF-8"?>
<svg xmlns="http://www.w3.org/2000/svg" xmlns:xlink="http://www.w3.org/1999/xlink" viewBox="0 0 3310.95 2686.78">
  <defs>
    <style>
      .cls-1 {
        fill: url(#_屋顶渐变-19);
      }

      .cls-1, .cls-2, .cls-3, .cls-4, .cls-5, .cls-6, .cls-7, .cls-8, .cls-9, .cls-10, .cls-11, .cls-12, .cls-13, .cls-14, .cls-15, .cls-16, .cls-17, .cls-18, .cls-19, .cls-20, .cls-21, .cls-22, .cls-23, .cls-24, .cls-25, .cls-26, .cls-27, .cls-28, .cls-29, .cls-30, .cls-31, .cls-32, .cls-33, .cls-34, .cls-35, .cls-36, .cls-37, .cls-38, .cls-39, .cls-40, .cls-41, .cls-42, .cls-43, .cls-44, .cls-45, .cls-46, .cls-47, .cls-48, .cls-49, .cls-50, .cls-51, .cls-52, .cls-53, .cls-54, .cls-55, .cls-56 {
        stroke-width: 0px;
      }

      .cls-2 {
        fill: url(#_屋顶渐变-15);
      }

      .cls-3 {
        fill: url(#_未命名的渐变_11);
      }

      .cls-4 {
        fill: url(#_屋顶渐变-13);
      }

      .cls-5 {
        fill: #897658;
      }

      .cls-6 {
        fill: #c8c4b3;
      }

      .cls-6, .cls-17 {
        opacity: .83;
      }

      .cls-7 {
        fill: url(#_屋顶渐变-3);
      }

      .cls-8 {
        fill: url(#_屋顶渐变-20);
      }

      .cls-9 {
        fill: url(#_屋顶渐变-4);
      }

      .cls-10 {
        fill: #e0ccb3;
        opacity: .52;
      }

      .cls-57 {
        stroke: #a4af8f;
        stroke-miterlimit: 10;
      }

      .cls-57, .cls-21 {
        fill: none;
      }

      .cls-11 {
        fill: #73674f;
      }

      .cls-12 {
        fill: url(#_未命名的渐变_10);
      }

      .cls-13 {
        fill: url(#_屋顶渐变-7);
      }

      .cls-14 {
        fill: #a4af8f;
      }

      .cls-15 {
        fill: url(#_屋顶渐变-16);
      }

      .cls-16 {
        fill: url(#_屋顶渐变-14);
      }

      .cls-17, .cls-25 {
        fill: #bcb5a4;
      }

      .cls-18 {
        fill: url(#_未命名的渐变_10-3);
      }

      .cls-19 {
        fill: url(#_屋顶渐变-8);
      }

      .cls-20 {
        fill: #cfc4b2;
      }

      .cls-22 {
        fill: url(#_屋顶渐变-24);
      }

      .cls-23 {
        fill: #614d35;
      }

      .cls-24 {
        fill: url(#_屋顶渐变-18);
      }

      .cls-26 {
        fill: url(#_屋顶渐变-22);
      }

      .cls-27 {
        fill: url(#_屋顶渐变-2);
      }

      .cls-28 {
        fill: url(#_未命名的渐变_48);
      }

      .cls-29 {
        fill: #464249;
      }

      .cls-30 {
        fill: url(#_未命名的渐变_15-2);
      }

      .cls-31 {
        fill: url(#_未命名的渐变_28);
      }

      .cls-32 {
        fill: url(#_屋顶渐变-11);
      }

      .cls-33 {
        fill: url(#_未命名的渐变_15);
      }

      .cls-34 {
        fill: url(#_屋顶渐变-9);
      }

      .cls-35 {
        fill: url(#_屋顶渐变-12);
      }

      .cls-36 {
        fill: #507450;
      }

      .cls-37 {
        fill: url(#_屋顶渐变-26);
      }

      .cls-38 {
        fill: url(#_未命名的渐变_10-2);
      }

      .cls-39 {
        fill: url(#_屋顶渐变-23);
      }

      .cls-40 {
        fill: url(#_屋顶渐变);
      }

      .cls-41 {
        fill: #649367;
      }

      .cls-42 {
        fill: #b6a68c;
      }

      .cls-43 {
        fill: #737165;
      }

      .cls-44 {
        fill: url(#_屋顶渐变-17);
      }

      .cls-45 {
        fill: #aca99f;
      }

      .cls-46 {
        fill: url(#_未命名的渐变_9);
      }

      .cls-47 {
        fill: #6d6a61;
      }

      .cls-48 {
        fill: url(#_屋顶渐变-6);
      }

      .cls-49 {
        fill: url(#_屋顶渐变-27);
      }

      .cls-50 {
        fill: url(#_屋顶渐变-5);
      }

      .cls-51 {
        fill: url(#_屋顶渐变-25);
      }

      .cls-52 {
        fill: #e3dbd0;
      }

      .cls-53 {
        fill: url(#_屋顶渐变-28);
      }

      .cls-54 {
        fill: url(#_屋顶渐变-10);
      }

      .cls-55 {
        fill: url(#_屋顶渐变-21);
      }

      .cls-56 {
        fill: url(#_未命名的渐变_14);
      }
    </style>
    <linearGradient id="_屋顶渐变" data-name="屋顶渐变" x1="1958.98" y1="1349.04" x2="1958.98" y2="1352.92" gradientUnits="userSpaceOnUse">
      <stop offset=".13" stop-color="#716d6b"/>
      <stop offset=".39" stop-color="#686463"/>
      <stop offset=".82" stop-color="#4f4b50"/>
      <stop offset=".96" stop-color="#464249"/>
    </linearGradient>
    <linearGradient id="_屋顶渐变-2" data-name="屋顶渐变" y1="1354.56" y2="1358.43" xlink:href="#_屋顶渐变"/>
    <linearGradient id="_屋顶渐变-3" data-name="屋顶渐变" x1="1970.39" x2="1970.39" xlink:href="#_屋顶渐变"/>
    <linearGradient id="_屋顶渐变-4" data-name="屋顶渐变" x1="1970.39" y1="1354.56" x2="1970.39" y2="1358.43" xlink:href="#_屋顶渐变"/>
    <linearGradient id="_屋顶渐变-5" data-name="屋顶渐变" x1="1981.79" x2="1981.79" xlink:href="#_屋顶渐变"/>
    <linearGradient id="_屋顶渐变-6" data-name="屋顶渐变" x1="1981.79" y1="1354.56" x2="1981.79" y2="1358.43" xlink:href="#_屋顶渐变"/>
    <linearGradient id="_屋顶渐变-7" data-name="屋顶渐变" x1="1993.2" x2="1993.2" xlink:href="#_屋顶渐变"/>
    <linearGradient id="_屋顶渐变-8" data-name="屋顶渐变" x1="1993.2" y1="1354.56" x2="1993.2" y2="1358.43" xlink:href="#_屋顶渐变"/>
    <linearGradient id="_屋顶渐变-9" data-name="屋顶渐变" x1="2004.61" x2="2004.61" xlink:href="#_屋顶渐变"/>
    <linearGradient id="_屋顶渐变-10" data-name="屋顶渐变" x1="2004.61" y1="1354.56" x2="2004.61" y2="1358.43" xlink:href="#_屋顶渐变"/>
    <linearGradient id="_屋顶渐变-11" data-name="屋顶渐变" x1="1947.53" x2="1947.53" xlink:href="#_屋顶渐变"/>
    <linearGradient id="_屋顶渐变-12" data-name="屋顶渐变" x1="1947.53" y1="1354.56" x2="1947.53" y2="1358.43" xlink:href="#_屋顶渐变"/>
    <linearGradient id="_屋顶渐变-13" data-name="屋顶渐变" x1="1936.09" x2="1936.09" xlink:href="#_屋顶渐变"/>
    <linearGradient id="_屋顶渐变-14" data-name="屋顶渐变" x1="1936.09" y1="1354.56" x2="1936.09" y2="1358.43" xlink:href="#_屋顶渐变"/>
    <linearGradient id="_屋顶渐变-15" data-name="屋顶渐变" x1="1924.64" x2="1924.64" xlink:href="#_屋顶渐变"/>
    <linearGradient id="_屋顶渐变-16" data-name="屋顶渐变" x1="1924.64" y1="1354.56" x2="1924.64" y2="1358.43" xlink:href="#_屋顶渐变"/>
    <linearGradient id="_屋顶渐变-17" data-name="屋顶渐变" x1="1913.2" x2="1913.2" xlink:href="#_屋顶渐变"/>
    <linearGradient id="_屋顶渐变-18" data-name="屋顶渐变" x1="1913.2" y1="1354.56" x2="1913.2" y2="1358.43" xlink:href="#_屋顶渐变"/>
    <linearGradient id="_屋顶渐变-19" data-name="屋顶渐变" x1="1901.75" x2="1901.75" xlink:href="#_屋顶渐变"/>
    <linearGradient id="_屋顶渐变-20" data-name="屋顶渐变" x1="1901.75" y1="1354.56" x2="1901.75" y2="1358.43" xlink:href="#_屋顶渐变"/>
    <linearGradient id="_屋顶渐变-21" data-name="屋顶渐变" x1="1890.31" x2="1890.31" xlink:href="#_屋顶渐变"/>
    <linearGradient id="_屋顶渐变-22" data-name="屋顶渐变" x1="1890.31" y1="1354.56" x2="1890.31" y2="1358.43" xlink:href="#_屋顶渐变"/>
    <linearGradient id="_屋顶渐变-23" data-name="屋顶渐变" x1="1878.87" x2="1878.87" xlink:href="#_屋顶渐变"/>
    <linearGradient id="_屋顶渐变-24" data-name="屋顶渐变" x1="1878.87" y1="1354.56" x2="1878.87" y2="1358.43" xlink:href="#_屋顶渐变"/>
    <linearGradient id="_屋顶渐变-25" data-name="屋顶渐变" x1="1867.42" x2="1867.42" xlink:href="#_屋顶渐变"/>
    <linearGradient id="_屋顶渐变-26" data-name="屋顶渐变" x1="1867.42" y1="1354.56" x2="1867.42" y2="1358.43" xlink:href="#_屋顶渐变"/>
    <linearGradient id="_屋顶渐变-27" data-name="屋顶渐变" x1="1855.98" x2="1855.98" xlink:href="#_屋顶渐变"/>
    <linearGradient id="_屋顶渐变-28" data-name="屋顶渐变" x1="1855.98" y1="1354.56" x2="1855.98" y2="1358.43" xlink:href="#_屋顶渐变"/>
    <linearGradient id="_未命名的渐变_10" data-name="未命名的渐变 10" x1="1836.84" y1="1360.02" x2="1836.84" y2="1395.34" gradientUnits="userSpaceOnUse">
      <stop offset="0" stop-color="#a4af8f"/>
      <stop offset=".16" stop-color="#8ca480"/>
      <stop offset=".37" stop-color="#769b72"/>
      <stop offset=".56" stop-color="#689569"/>
      <stop offset=".73" stop-color="#649367"/>
    </linearGradient>
    <linearGradient id="_未命名的渐变_10-2" data-name="未命名的渐变 10" x1="1787.9" y1="1320.67" x2="1787.9" y2="1401.51" xlink:href="#_未命名的渐变_10"/>
    <linearGradient id="_未命名的渐变_11" data-name="未命名的渐变 11" x1="1696.19" y1="1417.24" x2="1696.19" y2="1469.72" gradientUnits="userSpaceOnUse">
      <stop offset="0" stop-color="#a4af8f"/>
      <stop offset=".22" stop-color="#8ca480"/>
      <stop offset=".5" stop-color="#769b72"/>
      <stop offset=".77" stop-color="#689569"/>
      <stop offset="1" stop-color="#649367"/>
    </linearGradient>
    <linearGradient id="_未命名的渐变_9" data-name="未命名的渐变 9" x1="1845.05" y1="1341.4" x2="1845.05" y2="1513.35" gradientUnits="userSpaceOnUse">
      <stop offset=".04" stop-color="#a4af8f"/>
      <stop offset=".91" stop-color="#649367"/>
    </linearGradient>
    <linearGradient id="_未命名的渐变_10-3" data-name="未命名的渐变 10" x1="1819.21" y1="1302.78" x2="1819.21" y2="1533.68" xlink:href="#_未命名的渐变_10"/>
    <linearGradient id="_未命名的渐变_14" data-name="未命名的渐变 14" x1="1912.27" y1="1472.68" x2="1912.27" y2="1543.68" gradientUnits="userSpaceOnUse">
      <stop offset="0" stop-color="#a4af8f"/>
      <stop offset=".16" stop-color="#8ca480"/>
      <stop offset=".35" stop-color="#769b72"/>
      <stop offset=".54" stop-color="#689569"/>
      <stop offset=".71" stop-color="#649367"/>
    </linearGradient>
    <linearGradient id="_未命名的渐变_15" data-name="未命名的渐变 15" x1="2053.87" y1="1424.7" x2="2053.87" y2="1506.8" gradientUnits="userSpaceOnUse">
      <stop offset="0" stop-color="#a4af8f"/>
      <stop offset=".21" stop-color="#8ca480"/>
      <stop offset=".48" stop-color="#769b72"/>
      <stop offset=".73" stop-color="#689569"/>
      <stop offset=".96" stop-color="#649367"/>
    </linearGradient>
    <linearGradient id="_未命名的渐变_15-2" data-name="未命名的渐变 15" x1="2027.07" y1="1505.72" x2="2027.07" y2="1654.44" xlink:href="#_未命名的渐变_15"/>
    <linearGradient id="_未命名的渐变_28" data-name="未命名的渐变 28" x1="1748.77" y1="1507.27" x2="1748.77" y2="1639.73" gradientUnits="userSpaceOnUse">
      <stop offset=".16" stop-color="#649367"/>
      <stop offset=".38" stop-color="#5b865d"/>
      <stop offset=".71" stop-color="#537853"/>
      <stop offset="1" stop-color="#507450"/>
    </linearGradient>
    <linearGradient id="_未命名的渐变_48" data-name="未命名的渐变 48" x1="1652.26" y1="1480.25" x2="2227.93" y2="1480.25" gradientTransform="translate(-75.65 68.84)" gradientUnits="userSpaceOnUse">
      <stop offset=".24" stop-color="#e3dbd0"/>
      <stop offset=".3" stop-color="#e3dbd0" stop-opacity=".96"/>
      <stop offset=".41" stop-color="#e3dbd0" stop-opacity=".85"/>
      <stop offset=".55" stop-color="#e3dbd0" stop-opacity=".68"/>
      <stop offset=".71" stop-color="#e3dbd0" stop-opacity=".43"/>
      <stop offset=".89" stop-color="#e3dbd0" stop-opacity=".13"/>
      <stop offset=".96" stop-color="#e3dbd0" stop-opacity="0"/>
    </linearGradient>
  </defs>
  <g id="_背景" data-name="背景">
    <rect class="cls-52" x="1152.96" y="1048.94" width="1435.4" height="800.81"/>
    <g id="_地面" data-name="地面">
      <rect class="cls-20" x="1199" y="1766.89" width="1366" height="72.51"/>
    </g>
    <path class="cls-21" d="m1882.09,1292.2c-67.68,0-128.73,28.92-171.46,75.03h342.93c-42.74-46.11-103.78-75.03-171.46-75.03Z"/>
    <path class="cls-10" d="m2053.55,1367.23h-342.93c-38.68,41.73-62.36,97.55-62.36,158.79,0,29.87,5.64,58.45,15.89,84.73h435.87c10.26-26.28,15.89-54.86,15.89-84.73,0-61.25-23.68-117.06-62.36-158.79Z"/>
    <path class="cls-21" d="m1720.76,1695.11c-8.48-9.52-16.95-19.05-25.43-28.57,7.7,10.2,16.2,19.76,25.43,28.57Z"/>
    <rect class="cls-6" x="1774.1" y="1357.93" width="268.62" height="9.29"/>
    <rect class="cls-17" x="1772.08" y="1367.23" width="268.62" height="10.22"/>
    <rect class="cls-43" x="1677.31" y="1594.95" width="414.52" height="16.19"/>
    <g id="_草地" data-name="草地">
      <path class="cls-14" d="m1664.16,1610.75c7.84,20.09,18.38,38.83,31.17,55.79,8.48,9.52,16.95,19.05,25.43,28.57,5.63,5.37,11.52,10.47,17.66,15.26v4.58c2.12,2.38,4.24,4.76,6.35,7.14l24.83-19.63,51.74-18.59,43.38-9.29,76.53-7.44,108.29-2.79-.46,3.13c3.41-.63,6.82-1.26,10.22-1.89,8.68-18.28,17.35-36.56,26.03-54.84h-421.16Z"/>
    </g>
    <g id="_道路" data-name="道路">
      <path class="cls-25" d="m2061.04,1774.34c-12.38-.04-24.76-.08-37.14-.12l-4.26-69.59,26.96-38.09-49.34,2.46-81.72,3.72-64.75,8.11-71.26,24.42-34.39,31.6-19.45,36.36c-11.18-.04-22.35-.08-33.53-.11l-68.16,66.63h503.92c-22.29-21.8-44.58-43.6-66.87-65.39Z"/>
    </g>
    <g id="_石子铺地" data-name="石子铺地">
      <polygon class="cls-52" points="1734.13 1840.33 1776.5 1748.79 1822.43 1706.9 1867.51 1685.42 1921.11 1677.05 1960.15 1672.72 2046.59 1669.62 2028.93 1693.17 2004.03 1698.12 1985.86 1706.18 1975.33 1745.22 2018.39 1840.33 1734.13 1840.33"/>
    </g>
    <path class="cls-29" d="m1813.68,1342.59v19.36h50.96c.33-1.28,1.47-2.23,2.85-2.23s2.53.95,2.85,2.23h.03c.33,1.28,1.47,2.23,2.85,2.23s2.53-.95,2.85-2.23,1.47-2.23,2.85-2.23,2.53.95,2.85,2.23h.03c.33,1.28,1.47,2.23,2.85,2.23s2.53-.95,2.85-2.23,1.47-2.23,2.85-2.23,2.53.95,2.85,2.23,1.47,2.23,2.85,2.23,2.53-.95,2.85-2.23,1.47-2.23,2.85-2.23,2.53.95,2.85,2.23h.03c.33,1.28,1.47,2.23,2.85,2.23s2.53-.95,2.85-2.23,1.47-2.23,2.85-2.23,2.53.95,2.85,2.23h.03c.33,1.28,1.47,2.23,2.85,2.23s2.53-.95,2.85-2.23,1.47-2.23,2.85-2.23,2.53.95,2.85,2.23,1.47,2.23,2.85,2.23,2.53-.95,2.85-2.23,1.47-2.23,2.85-2.23,2.53.95,2.85,2.23h.03c.33,1.28,1.47,2.23,2.85,2.23s2.53-.95,2.85-2.23,1.47-2.23,2.85-2.23,2.53.95,2.85,2.23h.03c.33,1.28,1.47,2.23,2.85,2.23s2.53-.95,2.85-2.23,1.47-2.23,2.85-2.23,2.53.95,2.85,2.23,1.47,2.23,2.85,2.23,2.53-.95,2.85-2.23,1.47-2.23,2.85-2.23,2.53.95,2.85,2.23h.03c.33,1.28,1.47,2.23,2.85,2.23s2.53-.95,2.85-2.23,1.47-2.23,2.85-2.23,2.53.95,2.85,2.23h.03c.33,1.28,1.47,2.23,2.85,2.23s2.53-.95,2.85-2.23,1.47-2.23,2.85-2.23,2.53.95,2.85,2.23,1.47,2.23,2.85,2.23,2.53-.95,2.85-2.23,1.47-2.23,2.85-2.23,2.53.95,2.85,2.23h.03c.33,1.28,1.47,2.23,2.85,2.23s2.53-.95,2.85-2.23,1.47-2.23,2.85-2.23,2.53.95,2.85,2.23h8.09v-19.36h-213.39Z"/>
    <g>
      <path class="cls-40" d="m1958.98,1349.04c-2.14,0-3.87,1.73-3.87,3.87h7.75c0-2.14-1.73-3.87-3.87-3.87Z"/>
      <path class="cls-27" d="m1958.98,1354.56c-2.14,0-3.87,1.73-3.87,3.87h7.75c0-2.14-1.73-3.87-3.87-3.87Z"/>
    </g>
    <g>
      <path class="cls-7" d="m1970.39,1349.04c-2.14,0-3.87,1.73-3.87,3.87h7.75c0-2.14-1.73-3.87-3.87-3.87Z"/>
      <path class="cls-9" d="m1970.39,1354.56c-2.14,0-3.87,1.73-3.87,3.87h7.75c0-2.14-1.73-3.87-3.87-3.87Z"/>
    </g>
    <g>
      <path class="cls-50" d="m1981.79,1349.04c-2.14,0-3.87,1.73-3.87,3.87h7.75c0-2.14-1.73-3.87-3.87-3.87Z"/>
      <path class="cls-48" d="m1981.79,1354.56c-2.14,0-3.87,1.73-3.87,3.87h7.75c0-2.14-1.73-3.87-3.87-3.87Z"/>
    </g>
    <g>
      <path class="cls-13" d="m1993.2,1349.04c-2.14,0-3.87,1.73-3.87,3.87h7.75c0-2.14-1.73-3.87-3.87-3.87Z"/>
      <path class="cls-19" d="m1993.2,1354.56c-2.14,0-3.87,1.73-3.87,3.87h7.75c0-2.14-1.73-3.87-3.87-3.87Z"/>
    </g>
    <g>
      <path class="cls-34" d="m2004.61,1349.04c-2.14,0-3.87,1.73-3.87,3.87h7.75c0-2.14-1.73-3.87-3.87-3.87Z"/>
      <path class="cls-54" d="m2004.61,1354.56c-2.14,0-3.87,1.73-3.87,3.87h7.75c0-2.14-1.73-3.87-3.87-3.87Z"/>
    </g>
    <g>
      <path class="cls-32" d="m1947.53,1349.04c-2.14,0-3.87,1.73-3.87,3.87h7.75c0-2.14-1.73-3.87-3.87-3.87Z"/>
      <path class="cls-35" d="m1947.53,1354.56c-2.14,0-3.87,1.73-3.87,3.87h7.75c0-2.14-1.73-3.87-3.87-3.87Z"/>
    </g>
    <g>
      <path class="cls-4" d="m1936.09,1349.04c-2.14,0-3.87,1.73-3.87,3.87h7.75c0-2.14-1.73-3.87-3.87-3.87Z"/>
      <path class="cls-16" d="m1936.09,1354.56c-2.14,0-3.87,1.73-3.87,3.87h7.75c0-2.14-1.73-3.87-3.87-3.87Z"/>
    </g>
    <g>
      <path class="cls-2" d="m1924.64,1349.04c-2.14,0-3.87,1.73-3.87,3.87h7.75c0-2.14-1.73-3.87-3.87-3.87Z"/>
      <path class="cls-15" d="m1924.64,1354.56c-2.14,0-3.87,1.73-3.87,3.87h7.75c0-2.14-1.73-3.87-3.87-3.87Z"/>
    </g>
    <g>
      <path class="cls-44" d="m1913.2,1349.04c-2.14,0-3.87,1.73-3.87,3.87h7.75c0-2.14-1.73-3.87-3.87-3.87Z"/>
      <path class="cls-24" d="m1913.2,1354.56c-2.14,0-3.87,1.73-3.87,3.87h7.75c0-2.14-1.73-3.87-3.87-3.87Z"/>
    </g>
    <g>
      <path class="cls-1" d="m1901.75,1349.04c-2.14,0-3.87,1.73-3.87,3.87h7.75c0-2.14-1.73-3.87-3.87-3.87Z"/>
      <path class="cls-8" d="m1901.75,1354.56c-2.14,0-3.87,1.73-3.87,3.87h7.75c0-2.14-1.73-3.87-3.87-3.87Z"/>
    </g>
    <g>
      <path class="cls-55" d="m1890.31,1349.04c-2.14,0-3.87,1.73-3.87,3.87h7.75c0-2.14-1.73-3.87-3.87-3.87Z"/>
      <path class="cls-26" d="m1890.31,1354.56c-2.14,0-3.87,1.73-3.87,3.87h7.75c0-2.14-1.73-3.87-3.87-3.87Z"/>
    </g>
    <g>
      <path class="cls-39" d="m1878.87,1349.04c-2.14,0-3.87,1.73-3.87,3.87h7.75c0-2.14-1.73-3.87-3.87-3.87Z"/>
      <path class="cls-22" d="m1878.87,1354.56c-2.14,0-3.87,1.73-3.87,3.87h7.75c0-2.14-1.73-3.87-3.87-3.87Z"/>
    </g>
    <g>
      <path class="cls-51" d="m1867.42,1349.04c-2.14,0-3.87,1.73-3.87,3.87h7.75c0-2.14-1.73-3.87-3.87-3.87Z"/>
      <path class="cls-37" d="m1867.42,1354.56c-2.14,0-3.87,1.73-3.87,3.87h7.75c0-2.14-1.73-3.87-3.87-3.87Z"/>
    </g>
    <g>
      <path class="cls-49" d="m1855.98,1349.04c-2.14,0-3.87,1.73-3.87,3.87h7.75c0-2.14-1.73-3.87-3.87-3.87Z"/>
      <path class="cls-53" d="m1855.98,1354.56c-2.14,0-3.87,1.73-3.87,3.87h7.75c0-2.14-1.73-3.87-3.87-3.87Z"/>
    </g>
    <g id="_图层_17" data-name="图层 17">
      <rect class="cls-43" x="1814.37" y="1339.19" width="175.67" height="3.41"/>
    </g>
  </g>
  <g id="_树叶" data-name="树叶">
    <path class="cls-14" d="m1928.23,1436.01c2.14-2.76,4.29-5.53,6.43-8.29-2.11-4.75-4.23-9.51-6.34-14.26l1.54-9.05h-7.44l-9.53-6.51-.79-.06-.14-.09h-1l-12.55-1.01c3.43-3.43,6.87-6.87,10.3-10.3-2.09-3.46-4.18-6.92-6.27-10.38v-4.42l-7.67-5.81-11.34,3.95-12.6-6.27-19.52-6.27-7.67-14.64-21.22-1.86-7.59-11.02-32.07,1.96-25.25,18.97-2.33.48-7.71,7.07h0l-11.88,8.93-3.14,2.09-30.79,38.29c.79-.12,1.58-.23,2.37-.35l-.28.35,13.05-1.67.74.71v2.37l5.93,3.35,1.47,1.39-16.66-.87-1.63,8.02-10.11-7.2-14.02,9.29-12.59,56h14.41l13.36-6.39h15.57l6.16-7.09-8.02-4.76,6.7-11.15-10.77-4.65-15.8.7-1.51-2.09,14.48-4.44h17.89l15.37.49,14.64,3.95,7.22-10.41.67,13.35-1.27.08,1.63,6.97,21.43-1.48c4.45.16,8.9.32,13.34.47,7.33-1.77,14.66-3.53,22-5.3l4.19,5.46c6.33-1.27,12.65-2.53,18.98-3.8l3.06,5.46.12.5,12.56-3.31,2.34,1.37,8.93,5.47,3.05,2.74c1.05.67,2.1,1.35,3.15,2.02-2.7,1.7-5.4,3.4-8.1,5.1l-2.09,11.08,9.06,3.72,16.67-3.88,24.81,6.12.35.09,15.1-3.8,1.39-5.65-2.26-3.08-1.22-12.34,5.34-17.43-4.65-6.97Zm-69.09-8.37c-4.03.08-8.06.15-12.08.23l-8.91-4.03-15.72.77-4.8-3.02-24.63,3.02h-13.25l-17.8,5.11,1.53-2.21-5.27-5.17.76-.27,32.16-11.17c3.95.62,7.9,1.24,11.85,1.86,8.03-.31,16.06-.62,24.09-.93l39.19,8.48c-2.38,2.44-4.75,4.88-7.13,7.32Z"/>
    <path class="cls-21" d="m1826.45,1420.76l-.69-5.67c.44-1.08.88-2.17,1.32-3.25-8.03.31-16.06.62-24.09.93-3.95-.62-7.9-1.24-11.85-1.86l-32.16,11.17h0s-.76.27-.76.27l5.27,5.17-1.53,2.21,17.8-5.11h13.25l24.63-3.02,4.8,3.02,3.31-1.45.53-.23c.06-.73.12-1.45.17-2.18Z"/>
    <polygon class="cls-21" points="1856.36 1451.44 1858.71 1452.81 1864.36 1456.28 1856.43 1451.42 1856.36 1451.44"/>
    <polygon class="cls-21" points="1867.63 1458.29 1870.68 1461.03 1872.39 1462.73 1868.44 1458.78 1867.63 1458.29"/>
    <path class="cls-21" d="m1915.84,1426.09c-.05-2.38-.1-4.75-.15-7.13-3.2-2.94-6.4-5.89-9.6-8.83l-41.21,20.76-17.82-3.1-8.98-3.87c-3.98.21-7.95.41-11.93.62-.13-.46-.27-.91-.4-1.37l-3.31,1.45-4.8-3.02-24.63,3.02h-13.25l-17.8,5.11,1.53-2.21-5.27-5.17.76-.27s0,0,0,0l-16.79-9c-4.89.81-9.77,1.61-14.66,2.42-.94-.63-1.89-1.25-2.83-1.88l-16.39-.85-1.63,8.02-10.11-7.2-14.02,9.29-12.59,56h14.41l13.36-6.39h15.57l6.16-7.09-8.02-4.76,6.7-11.15-10.77-4.65-15.8.7-1.51-2.09-10.69-.46,7.28-7.67,23.31-2.56,8.75,1.28,3.72,4.97h0l9.25.29c-2.39-1.61-4.77-3.23-7.16-4.84l14.17-4.72,18.9,3.02-4.8,4.22c-4.57.95-9.15,1.91-13.72,2.86l13.37,3.61,7.22-10.41.67,13.35-1.27.08,21.53-1.32,8.91-5.19,20.06-.46c4.99,1.96,9.98,3.91,14.97,5.87-2.25.73-4.49,1.47-6.74,2.2,1.28,1.67,2.57,3.35,3.85,5.02,6.33-1.27,12.65-2.53,18.98-3.8l3.06,5.46-2.75-11.81-13.94-2.01v-6.51l10.46-4.18,9.06,6.27,9.45,2.17.62,4.11,11.15-.62,5.89-4.96,11.62,2.79,6.58-6.27,8.06,6.27-4.03,4.18,11.85,4.03,12.55,8.52-5.73,1.7,1.32,8.13c4.25,1.68,8.51,3.36,12.76,5.04l-1.06-10.7,5.34-17.43-4.65-6.97-12.39-9.91Z"/>
    <path class="cls-21" d="m1740.17,1380.7l3.87,4.34,17.97,2.48,10.69-1.55,9.6,5.11,24.17-8.37-7.44-5.11,10.69-2.17,16.42,8.06h11.77l8.83,5.73,9.76-1.55-4.34-5.34,6.97-5.19,1.28,5.19,15.61,5.19,6.06-5.19,12.84,4.57,5.48,5.35-4.09,3.95,2.09,1.55h12.55l-12.55-1.01c3.43-3.43,6.87-6.87,10.3-10.3-2.09-3.46-4.18-6.92-6.27-10.38v-4.42l-7.67-5.81-11.34,3.95-12.6-6.27-19.52-6.27-7.67-14.64-21.22-1.86-7.59-11.02-32.07,1.96-25.25,18.97,25.71-5.26,10.61,4.65,18.36-4.65,16.11,8.68h-29.28l-13.63,6.35-5.58-3.41h-4.03l-1.39,4-14.1,2.82-12.82-5.64-11.88,8.93-3.14,2.09-30.79,38.29c.79-.12,1.58-.23,2.37-.35l20.95-26.44h15.18Zm89.31-14.41l10.15,5.58,7.28-2.79h6.04l1.55,2.79-14.72,5.58-10.3-2.01-10.3-5.11,10.3-4.03Z"/>
    <polygon class="cls-21" points="1912.9 1397.9 1912.11 1397.84 1911.97 1397.74 1922.43 1404.41 1912.9 1397.9"/>
    <polygon class="cls-12" points="1839.78 1377.45 1854.5 1371.87 1852.95 1369.08 1846.91 1369.08 1839.62 1371.87 1829.48 1366.3 1819.18 1370.32 1829.48 1375.44 1839.78 1377.45"/>
    <polygon class="cls-38" points="1774.41 1361 1775.8 1357 1779.83 1357 1785.4 1360.41 1799.04 1354.06 1828.32 1354.06 1812.2 1345.38 1793.85 1350.03 1783.24 1345.38 1757.52 1350.64 1757.52 1350.64 1755.2 1351.11 1747.48 1358.18 1747.48 1358.18 1747.48 1358.18 1760.31 1363.82 1774.41 1361"/>
    <polygon class="cls-3" points="1722.43 1439.01 1722.43 1439.01 1718.71 1434.03 1709.96 1432.75 1686.65 1435.31 1682.73 1439.44 1678.82 1439.44 1669.95 1478.88 1684.36 1478.88 1697.72 1472.49 1713.29 1472.49 1719.45 1465.4 1711.43 1460.64 1718.13 1449.49 1707.37 1444.84 1691.56 1445.53 1690.05 1443.44 1704.54 1439.01 1722.43 1439.01"/>
    <path class="cls-41" d="m1757.6,1432.75l-18.9-3.02-14.17,4.72c2.39,1.61,4.77,3.23,7.16,4.84l6.13.19,1.27.34c4.57-.95,9.15-1.91,13.72-2.86l4.8-4.22Z"/>
    <path class="cls-46" d="m1928.76,1472.74l-.16-1.64c-4.25-1.68-8.51-3.36-12.76-5.04l-1.32-8.13,5.73-1.7-12.55-8.52-11.85-4.03,4.03-4.18-8.06-6.27-6.58,6.27-11.62-2.79-5.89,4.96-11.15.62-.62-4.11-9.45-2.17-9.06-6.27-10.46,4.18v6.51l-2.46,4.94c-4.99-1.96-9.98-3.91-14.97-5.87l-20.06.46-8.91,5.19c-7.18-2.22-14.36-4.44-21.53-6.66,1.57,6.96,3.14,13.92,4.71,20.87,4.63-2.15,9.26-4.3,13.88-6.45,5.94-.16,11.88-.32,17.82-.48,7.33-1.77,22.22-5.01,22.33-4.87l3.85,5.02,18.98-3.8,3.18,5.96,12.56-3.31.07-.02,7.93,4.86,3.28,2.01h0c1.06.94,2.12,1.88,3.18,2.82.89.61,1.78,1.22,2.67,1.82-2.59,1.74-5.17,3.48-7.76,5.22l-2.09,11.08,9.06,3.72,16.67-3.88,24.81,6.12.35.09,15.1-3.8,1.39-5.65-2.26-3.08Z"/>
    <path class="cls-18" d="m1928.32,1413.46l1.54-9.05h-7.44l-10.46-6.66h-13.55l-2.09-1.55,4.09-3.95-5.48-5.35-12.84-4.57-6.06,5.19-15.61-5.19-1.28-5.19-6.97,5.19,4.34,5.34-9.76,1.55-8.83-5.73h-11.77l-16.42-8.06-10.69,2.17,7.44,5.11-24.17,8.37-9.6-5.11-10.69,1.55-17.97-2.48-3.87-4.34h-15.18l-20.95,26.44-.28.35,13.05-1.67.74.71v2.37l5.93,3.35,1.47,1.39h-.26c.94.61,1.89,1.24,2.83,1.86,4.89-.81,9.77-1.61,14.66-2.42l16.79,9s0,0,0,0h0s32.16-11.17,32.16-11.17c3.95.62,7.9,1.24,11.85,1.86,8.03-.31,16.06-.62,24.09-.93l39.19,8.48,15.9-1.63c7.97-2.85,15.94-5.71,23.91-8.56,3.2,2.94,6.4,5.89,9.6,8.83.05,2.38.1,4.75.15,7.13l12.39,9.91c2.14-2.76,4.29-5.53,6.43-8.29-2.11-4.75-4.23-9.51-6.34-14.26Z"/>
  </g>
  <g id="_树枝" data-name="树枝">
    <polygon class="cls-11" points="1863.4 1454.52 1857.83 1461.1 1859.07 1466.6 1865.57 1468.07 1873.32 1462.65 1883 1460.95 1898.41 1461.26 1888.03 1462.89 1877.58 1463.89 1871.15 1469.55 1873.63 1470.63 1880.52 1470.48 1890.13 1469 1895.24 1471.87 1882.09 1472.34 1876.26 1473.96 1865.65 1471.33 1843.88 1469.39 1837.15 1465.52 1832.5 1464.67 1822.43 1449.95 1828.93 1450.57 1834.82 1460.25 1843.34 1464.59 1853.72 1464.59 1854.34 1460.72 1859.38 1453.44 1863.4 1454.52"/>
    <path class="cls-11" d="m1867.04,1538.1l40.28,17.66,1.08-2.94-31.14-13.32,7.75-2.01h6.66l7.9,4.34,2.17-2.94-10.38-5.05h-6.04l-5.73,2.11-18.9-2.11-21.69-12.46,1.24-2.17,11.77.46,15.8.31,5.89,4.03,6.04.62,12.39-1.49h7.9l-3.1-7.65-13.51-4.18-9.42,3.41-8.37.77c2.81-3.72,5.63-7.44,8.44-11.15-4.16,3.72-8.31,7.44-12.47,11.15l-5.42-1.7h-8.52l-13.48-13.94-18.74-12.7-18.43-33.77-7.13.31-12.24,13.94-9.91-5.58-4.49-11.15,3.6-20.37c4.36-1.87,8.71-3.73,13.07-5.6,2.07.06,4.14.12,6.22.17l11.97-6.85,11.39-7.9h10.34l24.52-1.74,21.03-10.81-16.03,6.62-14.06,1.05,10.57-14.06-12.2,12.2-5.11,1.63-14.17.46,14.17-6.62-21.73,6.74,5-13.36-8.6,14.87-10.46,6.16-9.76,2.9-13.25,9.29-2.66,1.27.34-4.87,10.22-26.49-2.32-3.56-6.35.46-2.79,8.98c-4.85-.84-9.71-1.68-14.56-2.52l-3.19-5.96c-3.97-1.96-7.94-3.93-11.92-5.89l7.51,6.31c.79,1.54,1.57,3.07,2.36,4.61-6.08-.04-12.16-.08-18.24-.12-3.61-2.61-7.23-5.22-10.84-7.82-1.06.9-2.12,1.81-3.18,2.71l9.45,6.51,10.22,3.1,12.24-.77,6.35,1.86,10.53,2.48-5.89,4.03v15.8l-8.98,10.84-9.45,1.55-12.08,4.34-3.41,8.83v5.11l-4.65,7.28-6.04-2.01-11-1.24h-13.32l-5.58,4.34,13.79-1.08,11.93,1.08,11.62,3.72c2.3-3.57,4.6-7.14,6.91-10.71.13-2.38.26-4.77.39-7.15,1-2.12,1.99-4.24,2.99-6.36,4.32-1.22,8.63-2.44,12.94-3.66l2.01,1.24,3.87,23.24,6.04,6.66,8.52,4.18,4.34,8.21,2.32,16.58,2.48,71.42,19.83,1.55-2.79-6.97-3.1-5.89-3.1-58.4-.62-8.37.15-21.07,5.73-7.59,6.97.62,10.07,17.66,4.18,10.07,7.13,14.02,3.25,7.67,11,5.73,15.18,11.62,11.31,12.24,13.94,4.49,3.56-1.55v-1.55h-4.18l-10.84-4.18-11-10.07,5.27,1.61,12.39,4.28Zm16.39-24.09l12.34,3.02.31,3.18h-6.82l-9.68,1.86-7.59-3.72,11.43-4.34Zm-63.41-20.22l11.08,8.29,15.49,14.95-14.17-1.7-12.39-21.53Z"/>
    <path class="cls-11" d="m1970.91,1584.03l.7,5.81h13.71l8.29-8.37,5.5-.93-5.65,6.51,5.65,2.4,9.22-.62,6.12-6.74,3.87-.62-9.14,9.84,2.63,3.02,8.83-3.1,6.43-.46,3.02-6.12,5.58-4.11,3.56,2.32-6.89,4.57.08,5.03,8.06,2.94c-3.23,2.87-6.45,5.73-9.68,8.6,1.67.62,3.34,1.24,5.01,1.86-3.53,3.85-7.06,7.69-10.59,11.54h-42.91l18.43-19.83-12.16-7.51-1.94,1.86-16.34-.08-2.71-4.49,3.33-3.33Z"/>
  </g>
  <g id="_上层树叶" data-name="上层树叶">
    <path class="cls-14" d="m1839.24,1490.25l10.92,1.99,8.83-3.25,3.02,4.8,11.15,3.1v-6.19l13.25,4.33,12.01-1.24,16.34,1.01,9.29-4.1,8.83,2.24c.67-.96,1.34-1.91,2.01-2.87,3.28.21,6.56.42,9.84.63l3.95,3.09,4.42,3.1v1.86l2.56,3.25-13.94,10.43h-2.32l4.18,4.6-9.53,1.01-4.65,5.1h13.01l4.88,6.99-14.41,7.9-13.71,4.18c-7.33.41-14.67.83-22,1.24,1.73-4,3.46-8,5.19-12.01-3.67-2.04-7.33-4.08-11-6.12-2.07-5.37-4.13-10.74-6.2-16.11-3.77.23-7.54.46-11.31.7l-6.97.77-11.15-6.82-14.17-.93-4.42-11.15,2.09-1.53Z"/>
    <polygon class="cls-41" points="1923.01 1552.19 1934.39 1545.57 1934.97 1539.76 1950.54 1533.82 1955.65 1540.11 1940.67 1549.29 1946.71 1552.19 1943.34 1555.56 1936.83 1555.56 1924.17 1561.37 1907.32 1555.76 1908.41 1552.81 1923.01 1552.19"/>
    <g id="_图层_11" data-name="图层 11">
      <path class="cls-56" d="m1947.77,1507.9c-6.41-1.09-12.82-2.17-19.23-3.26l-.77-5.42-11.46,6.61-13.01,1.87-7.2-8.48-15.41,6.2-3.9,4.31c2.8-.17,5.6-.34,8.39-.52,2.07,5.37,4.13,10.74,6.2,16.11,3.67,2.04,7.33,4.08,11,6.12-1.73,4-3.46,8-5.19,12.01,5.96-.34,11.93-.67,17.89-1.01l5.18-.56,12.64-3.85,14.41-7.9-4.88-6.99h-13.01l4.65-5.1,9.53-1.01-4.18-4.6h2.32l6.06-4.53Z"/>
    </g>
    <polygon class="cls-33" points="2076.33 1424.54 2045.04 1432.91 2047.21 1439.84 2034.82 1447.16 2041.63 1453.85 2055.57 1458.29 2050.93 1467.61 2036.06 1467.61 2025.52 1456.28 2012.82 1465.75 2020.25 1471.95 2027.07 1471.95 2023.35 1480.41 2042.56 1488.99 2066.42 1480.41 2084.7 1485.27 2094.92 1473.96 2076.33 1424.54"/>
    <path class="cls-41" d="m1983.46,1603.32l9.6-6.97h10.69c2.43,2.25,4.85,4.49,7.28,6.74-9.19.08-18.38.15-27.57.23Z"/>
    <path class="cls-30" d="m2098.02,1497.66l-29.43-10.84-6.2,2.17-1.24,11.77-9.29-5.5-3.1,12.43-7.13,1.74-13.63,13.69,6.2,13.26-20.45,10.06-12.08-10.06-40.59,13.01-8.37,14.41,8.98,6.66-2.79,11.31,8.68,7.67,22-7.67,13.63,6.04,15.49-4.65,2.48-5.27,10.53-3.18-1.24,7.05,7.38,7.91,8.73-2.02,5.89,5.11-16.73,9.91,8.99,6.82,39.35-1.86,17.35-47.71-3.41-62.28Zm-54.68,40.12l1.24,8.21-10.22-1.24,8.99-6.97Zm-1.7,40.74l-5.73-1.7,2.17-4.96,8.52,1.08-4.96,5.58Zm10.07,0l-1.86-.77.93-4.03h4.34l-3.41,4.8Zm22,7.75h-11.46l4.34-5.73h.77l13.79-2.01-7.44,7.75Z"/>
    <line class="cls-57" x1="2038.69" y1="1447.16" x2="2054.8" y2="1439.88"/>
    <line class="cls-57" x1="2045.81" y1="1449.95" x2="2053.87" y2="1442.98"/>
    <line class="cls-57" x1="2047.67" y1="1453.05" x2="2062.08" y2="1446.46"/>
    <line class="cls-57" x1="2065.49" y1="1451.34" x2="2054.8" y2="1468.38"/>
    <line class="cls-57" x1="2065.49" y1="1457.5" x2="2062.08" y2="1475.05"/>
    <line class="cls-57" x1="2068.74" y1="1456.15" x2="2069.83" y2="1473.03"/>
    <line class="cls-57" x1="2033.42" y1="1479.85" x2="2052.94" y2="1473.03"/>
    <line class="cls-57" x1="2035.9" y1="1482.48" x2="2047.67" y2="1476.44"/>
    <line class="cls-57" x1="2040.55" y1="1484.34" x2="2052.17" y2="1476.44"/>
    <line class="cls-57" x1="2047.67" y1="1484.34" x2="2056.5" y2="1476.44"/>
    <line class="cls-57" x1="2030.48" y1="1470.4" x2="2049.84" y2="1469.16"/>
    <line class="cls-57" x1="2025.06" y1="1458.78" x2="2027.07" y2="1468.38"/>
    <line class="cls-57" x1="2021.34" y1="1461.26" x2="2025.06" y2="1468.38"/>
    <line class="cls-57" x1="2018.24" y1="1466.99" x2="2025.06" y2="1469.78"/>
    <line class="cls-57" x1="1963.4" y1="1552.19" x2="1975.64" y2="1557.46"/>
    <line class="cls-57" x1="1961.7" y1="1554.83" x2="1971.92" y2="1559.16"/>
    <line class="cls-57" x1="1957.05" y1="1562.26" x2="1971.92" y2="1561.37"/>
    <path class="cls-57" d="m1959.84,1565.67c.46-.15,13.63-1.7,13.63-1.7"/>
    <line class="cls-57" x1="2038.69" y1="1565.67" x2="2025.06" y2="1567.68"/>
    <line class="cls-57" x1="2041.24" y1="1566.68" x2="2030.48" y2="1570.16"/>
    <line class="cls-57" x1="2045.2" y1="1567.68" x2="2040.16" y2="1570.16"/>
    <line class="cls-57" x1="2049.22" y1="1566.68" x2="2045.2" y2="1571.09"/>
    <line class="cls-57" x1="2053.87" y1="1567.68" x2="2048.6" y2="1571.87"/>
    <line class="cls-57" x1="2052.48" y1="1604.4" x2="2046.59" y2="1607.96"/>
    <line class="cls-57" x1="2057.43" y1="1603.32" x2="2051.24" y2="1607.96"/>
    <line class="cls-57" x1="2062.86" y1="1603.32" x2="2057.43" y2="1607.96"/>
    <line class="cls-57" x1="2067.66" y1="1602.23" x2="2062.86" y2="1607.96"/>
    <line class="cls-57" x1="2072.61" y1="1601.3" x2="2068.28" y2="1606.88"/>
    <line class="cls-57" x1="2078.35" y1="1599.83" x2="2073.23" y2="1606.88"/>
    <line class="cls-57" x1="1972.85" y1="1575.2" x2="1963.4" y2="1571.87"/>
    <line class="cls-57" x1="1969.52" y1="1576.67" x2="1962.32" y2="1575.2"/>
    <line class="cls-57" x1="1969.52" y1="1578.53" x2="1961.7" y2="1578.53"/>
    <line class="cls-57" x1="1963.4" y1="1581.32" x2="1970.84" y2="1580.54"/>
    <line class="cls-57" x1="1967.58" y1="1584.73" x2="1974.24" y2="1580.93"/>
    <line class="cls-57" x1="1971.92" y1="1584.73" x2="1978.74" y2="1580.93"/>
  </g>
  <g id="_树丛" data-name="树丛">
    <path class="cls-42" d="m1781.39,1562.88c-1.7.54-3.41,1.08-5.11,1.62l-2.34-60.41-11.62-8.83h-13.94v19.05l15.22,60.42,5.37-1.89c-2.2,5.32-4.41,10.63-6.61,15.95,12.23,2.59,24.45,5.19,36.68,7.78,1.86-7.98,3.72-15.96,5.58-23.93-7.74-3.25-15.48-6.51-23.23-9.76Z"/>
    <path class="cls-5" d="m1735.72,1519.55c4.22-3.95,8.44-7.9,12.66-11.85l16.5,38.46-4.42,6.04,8.37,21.53-39.97-.62c-1.16-7.4-2.32-14.79-3.49-22.19,2.83-5.36,5.65-10.72,8.48-16.08.62-5.1,1.24-10.2,1.86-15.29Z"/>
    <path class="cls-23" d="m1745.24,1573.36v-49.52h-.12l.12-.12-8.91-3.91-.62-.27-.52,4.3h0c-.45,3.66-.89,7.33-1.34,10.99l-8.48,16.08c1.16,7.4,2.32,14.79,3.49,22.19l16.38.25Z"/>
    <polygon class="cls-36" points="1866.11 1594.95 1879.75 1581.78 1891.52 1582.87 1899.27 1614 1878.66 1615.09 1866.11 1594.95"/>
    <path class="cls-31" d="m1664.73,1546.45l17.82-12.63,47.95,18.6,13.01,20.22c11.54-1.94,23.08-3.87,34.62-5.81,2.79,4.98,5.58,9.97,8.37,14.95,1.16,2.3,2.32,4.6,3.49,6.89l9.06-3.02c-2.09-3.18-4.18-6.35-6.27-9.53l4.88-7.67,6.97-.46,5.11,6.74,7.2-1.37,7.67,11.36-2.56,5.11,8.83,8.6c.65,4.93,1.29,9.86,1.94,14.79l-34.7,5.58c-10.43-2.07-20.86-4.13-31.29-6.2-6.3.1-12.6.21-18.9.31-4.23,2.89-8.47,5.78-12.7,8.68-10.02,1.03-20.04,2.07-30.05,3.1-8.29-4.42-16.58-8.83-24.86-13.25l-15.57-65Z"/>
    <path class="cls-41" d="m1675.42,1594.95s36.95,7.44,37.64,7.44,12.32,26.26,12.32,26.26l-9.53,3.02-31.14,1.16-9.29-37.88Z"/>
    <polygon class="cls-41" points="1826.69 1598.67 1848.07 1591.23 1873.86 1592.39 1889.2 1603.55 1885.48 1627.95 1860.42 1631.66 1838.54 1628.64 1835.98 1625.39 1825.53 1626.78 1823.9 1624.23 1816.93 1622.37 1827.85 1613.31 1826.69 1598.67"/>
    <line class="cls-57" x1="1697.57" y1="1587.82" x2="1711.66" y2="1560.87"/>
    <line class="cls-57" x1="1711.66" y1="1573.73" x2="1724.21" y2="1566.14"/>
    <line class="cls-57" x1="1708.72" y1="1580.08" x2="1730.25" y2="1574.35"/>
    <polyline class="cls-57" points="1700.39 1592.63 1708.72 1586.27 1727.31 1586.27 1740.01 1591.23"/>
    <polyline class="cls-57" points="1704.62 1597.58 1715.69 1594.18 1734.13 1599.29"/>
    <line class="cls-57" x1="1725.37" y1="1589.45" x2="1736.45" y2="1596.73"/>
    <line class="cls-57" x1="1690.44" y1="1555.6" x2="1693.08" y2="1568.3"/>
    <line class="cls-57" x1="1693.85" y1="1573.36" x2="1703.45" y2="1559.47"/>
    <line class="cls-57" x1="1704.62" y1="1565.36" x2="1701.6" y2="1574.35"/>
    <line class="cls-57" x1="1679.6" y1="1563.81" x2="1693.85" y2="1577.21"/>
    <line class="cls-57" x1="1676.96" y1="1567.37" x2="1685.95" y2="1583.02"/>
    <line class="cls-57" x1="1690.44" y1="1580.08" x2="1690.44" y2="1587.05"/>
    <line class="cls-57" x1="1717.24" y1="1601.3" x2="1726.38" y2="1601.3"/>
    <line class="cls-57" x1="1720.2" y1="1607.19" x2="1734.75" y2="1615.09"/>
  </g>
  <g id="_雾气" data-name="雾气">
    <rect class="cls-28" x="1576.62" y="1253.17" width="575.66" height="591.85" transform="translate(3413.54 -315.35) rotate(90)"/>
  </g>
  <g id="_门洞和路" data-name="门洞和路">
    <path class="cls-47" d="m2119.24,1526.63c0-130.23-105.58-235.81-235.81-235.81s-235.81,105.57-235.81,235.81c0,75.55,35.54,142.78,90.79,185.93v61.39l15.66-19.86v-59.6c-50.21-38.75-82.57-99.52-82.57-167.86,0-117.04,94.88-211.92,211.92-211.92s211.92,94.88,211.92,211.92c0,75.25-39.23,141.33-98.34,178.94v41.59l17.05,29.65h.1v-53.92c63.34-42.28,105.08-114.39,105.08-196.26Z"/>
    <path class="cls-45" d="m2083.65,1367.23c-6.22-7.87-12.93-15.43-20.13-22.63-48.46-48.46-112.89-75.15-181.43-75.15s-132.97,26.69-181.43,75.15c-7.2,7.2-13.91,14.76-20.13,22.63-35.66,45.08-55.01,100.45-55.01,158.79,0,29.3,4.9,57.85,14.27,84.73,12.55,35.98,33.14,68.96,60.88,96.7,4.84,4.84,9.85,9.45,15.01,13.85v52.65h22.75v-63.58c-6.14-4.8-12.03-9.89-17.66-15.26-9.23-8.81-17.74-18.37-25.43-28.57-12.79-16.96-23.33-35.7-31.17-55.79-10.26-26.28-15.89-54.86-15.89-84.73,0-61.25,23.68-117.06,62.36-158.79,42.74-46.11,103.78-75.03,171.46-75.03s128.73,28.92,171.46,75.03c38.68,41.73,62.36,97.55,62.36,158.79,0,29.87-5.63,58.45-15.89,84.73-17.2,44.07-47.39,81.68-85.84,108.1h-.35v57.97h22.75v-45.89c9.43-7.14,18.42-14.97,26.93-23.48,27.74-27.74,48.33-60.72,60.88-96.7,9.37-26.88,14.27-55.43,14.27-84.73,0-58.35-19.36-113.72-55.02-158.79Z"/>
  </g>
</svg>